<svg xmlns="http://www.w3.org/2000/svg" xmlns:xlink="http://www.w3.org/1999/xlink" width="500" zoomAndPan="magnify" viewBox="0 0 375 374.999991" height="500" preserveAspectRatio="xMidYMid meet" version="1.0"><defs><g/><clipPath id="b80a81b5c7"><path d="M 218 98 L 372 98 L 372 284 L 218 284 Z M 218 98 " clip-rule="nonzero"/></clipPath><clipPath id="5fa021d2a8"><path d="M 142.804688 151.886719 L 314.34375 45.691406 L 400.011719 184.066406 L 228.472656 290.265625 Z M 142.804688 151.886719 " clip-rule="nonzero"/></clipPath><clipPath id="2d3820daaa"><path d="M 142.804688 151.886719 L 314.34375 45.691406 L 400.011719 184.066406 L 228.472656 290.265625 Z M 142.804688 151.886719 " clip-rule="nonzero"/></clipPath></defs><g clip-path="url(#b80a81b5c7)"><g clip-path="url(#5fa021d2a8)"><g clip-path="url(#2d3820daaa)"><path fill="#178582" d="M 284.722656 255.140625 C 264.449219 267.691406 243.929688 277.089844 224.785156 283.125 C 237.242188 277.808594 249.992188 271.203125 262.652344 263.367188 C 326.089844 224.09375 363.019531 168.835938 345.132812 139.941406 C 332.964844 120.292969 298.5625 117.910156 257.816406 130.757812 C 307.789062 109.378906 352.890625 108.59375 367.210938 131.730469 C 385.09375 160.609375 348.160156 215.867188 284.722656 255.140625 Z M 218.359375 143.179688 L 218.097656 142.757812 C 243.421875 127.078125 242.714844 121.832031 228.4375 98.769531 L 228.859375 98.503906 C 243.140625 121.570312 247.53125 124.535156 272.859375 108.855469 L 273.121094 109.28125 C 247.792969 124.960938 248.484375 130.199219 262.761719 153.265625 L 262.339844 153.527344 C 248.058594 130.464844 243.6875 127.503906 218.359375 143.179688 " fill-opacity="1" fill-rule="evenodd"/></g></g></g><path stroke-linecap="butt" transform="matrix(1.119338, 0, 0, 1.119338, 10.461838, 122.599137)" fill="none" stroke-linejoin="miter" d="M 14.945946 70.000282 L 52.171486 70.000282 C 53.078831 70.000282 53.794237 69.21857 53.794237 68.311226 L 53.794237 54.020555 C 53.794237 53.11321 53.078831 52.397804 52.171486 52.397804 L 22.83984 52.397804 C 21.915047 52.397804 21.199641 51.682398 21.199641 50.775054 L 21.199641 37.088116 C 21.199641 36.163323 21.915047 35.447917 22.83984 35.447917 L 52.171486 35.447917 C 53.078831 35.447917 53.794237 34.666205 53.794237 33.758861 L 53.794237 19.485639 C 53.794237 18.560846 53.078831 17.84544 52.171486 17.84544 L 14.945946 17.84544 C 7.257949 17.84544 1.639394 23.446545 1.639394 31.148501 L 1.639394 56.69373 C 1.639394 64.399176 7.257949 70.000282 14.945946 70.000282 Z M 70.353268 70.000282 L 86.127098 70.000282 C 93.829054 70.000282 99.43016 64.399176 99.43016 56.69373 L 99.43016 31.148501 C 99.43016 23.446545 93.829054 17.84544 86.127098 17.84544 L 70.353268 17.84544 C 62.665271 17.84544 57.046716 23.446545 57.046716 31.148501 L 57.046716 56.69373 C 57.046716 64.399176 62.665271 70.000282 70.353268 70.000282 Z M 78.247163 55.008164 C 77.325859 55.008164 76.606963 54.292758 76.606963 53.385414 L 76.606963 34.477757 C 76.606963 33.552964 77.325859 32.837558 78.247163 32.837558 C 79.154507 32.837558 79.869913 33.552964 79.869913 34.477757 L 79.869913 53.385414 C 79.869913 54.292758 79.154507 55.008164 78.247163 55.008164 Z M 104.382165 70.000282 L 120.616647 70.000282 C 121.523991 70.000282 122.239397 69.284876 122.239397 68.377532 L 122.239397 39.363456 C 122.239397 38.456112 122.954803 37.723257 123.879596 37.723257 C 124.78694 37.723257 125.502346 38.456112 125.502346 39.363456 L 125.502346 68.503164 C 125.502346 69.347692 126.280568 70.000282 127.125096 70.000282 L 143.422394 70.000282 C 144.284371 70.000282 145.062593 69.347692 145.062593 68.503164 L 145.062593 39.363456 C 145.062593 38.456112 145.777999 37.723257 146.685343 37.723257 C 147.610136 37.723257 148.325542 38.456112 148.325542 39.363456 L 148.325542 68.377532 C 148.325542 69.284876 149.103764 70.000282 150.011109 70.000282 L 166.24559 70.000282 C 167.152934 70.000282 167.86834 69.284876 167.86834 68.377532 L 167.86834 19.485639 C 167.86834 18.560846 167.090118 17.84544 166.182774 17.84544 L 138.536694 17.84544 C 137.62935 17.84544 136.913944 18.623662 136.913944 19.548455 L 136.913944 28.604448 C 136.913944 29.511792 136.198538 30.227198 135.273745 30.227198 C 134.366401 30.227198 133.650995 29.511792 133.650995 28.604448 L 133.650995 19.485639 C 133.650995 18.560846 132.872773 17.84544 131.965429 17.84544 L 104.319349 17.84544 C 103.394556 17.84544 102.67915 18.560846 102.67915 19.485639 L 102.67915 68.377532 C 102.67915 69.284876 103.474821 70.000282 104.382165 70.000282 Z M 172.830815 70.000282 L 189.061807 70.000282 C 189.969151 70.000282 190.688047 69.284876 190.688047 68.377532 L 190.688047 53.385414 C 190.688047 52.460621 191.466269 51.745215 192.391062 51.745215 L 209.993539 51.745215 C 217.678047 51.745215 223.282642 46.144109 223.282642 38.456112 L 223.282642 31.148501 C 223.282642 23.446545 217.678047 17.84544 209.993539 17.84544 L 172.764509 17.84544 C 171.843206 17.84544 171.1278 18.560846 171.1278 19.485639 L 171.1278 68.377532 C 171.1278 69.284876 171.923471 70.000282 172.830815 70.000282 Z M 192.324756 36.100507 C 191.403453 36.100507 190.688047 35.385101 190.688047 34.477757 C 190.688047 33.552964 191.403453 32.837558 192.324756 32.837558 L 202.099645 32.837558 C 203.003499 32.837558 203.722395 33.552964 203.722395 34.477757 C 203.722395 35.385101 203.003499 36.100507 202.099645 36.100507 Z M 228.175321 70.000282 L 265.400862 70.000282 C 273.088859 70.000282 278.689964 64.399176 278.689964 56.69373 L 278.689964 49.403569 C 278.689964 41.701612 273.088859 36.100507 265.400862 36.100507 L 247.735568 36.100507 C 246.810775 36.100507 246.095369 35.385101 246.095369 34.477757 C 246.095369 33.552964 246.810775 32.837558 247.735568 32.837558 L 277.067214 32.837558 C 277.974558 32.837558 278.689964 32.122152 278.689964 31.214807 L 278.689964 19.485639 C 278.689964 18.560846 277.974558 17.84544 277.067214 17.84544 L 239.841674 17.84544 C 232.153676 17.84544 226.535122 23.446545 226.535122 31.148501 L 226.535122 38.456112 C 226.535122 46.144109 232.153676 51.745215 239.841674 51.745215 L 257.506967 51.745215 C 258.414311 51.745215 259.129717 52.460621 259.129717 53.385414 C 259.129717 54.292758 258.414311 55.008164 257.506967 55.008164 L 228.175321 55.008164 C 227.250528 55.008164 226.535122 55.72357 226.535122 56.630914 L 226.535122 68.377532 C 226.535122 69.284876 227.250528 70.000282 228.175321 70.000282 Z M 228.175321 70.000282 " stroke="#ffffff" stroke-width="4.889662" stroke-opacity="1" stroke-miterlimit="4"/><g fill="#178582" fill-opacity="1"><g transform="translate(10.479328, 200.95281)"><g><path d="M 16.710938 0 L 58.375 0 C 59.398438 0 60.199219 -0.875 60.199219 -1.898438 L 60.199219 -17.878906 C 60.199219 -18.898438 59.398438 -19.703125 58.375 -19.703125 L 25.539062 -19.703125 C 24.519531 -19.703125 23.714844 -20.503906 23.714844 -21.527344 L 23.714844 -36.851562 C 23.714844 -37.871094 24.519531 -38.675781 25.539062 -38.675781 L 58.375 -38.675781 C 59.398438 -38.675781 60.199219 -39.550781 60.199219 -40.570312 L 60.199219 -56.550781 C 60.199219 -57.574219 59.398438 -58.375 58.375 -58.375 L 16.710938 -58.375 C 8.101562 -58.375 1.824219 -52.101562 1.824219 -43.488281 L 1.824219 -14.886719 C 1.824219 -6.277344 8.101562 0 16.710938 0 Z M 16.710938 0 "/></g></g></g><g fill="#178582" fill-opacity="1"><g transform="translate(72.501109, 200.95281)"><g><path d="M 16.710938 0 L 34.367188 0 C 42.980469 0 49.253906 -6.277344 49.253906 -14.886719 L 49.253906 -43.488281 C 49.253906 -52.101562 42.980469 -58.375 34.367188 -58.375 L 16.710938 -58.375 C 8.101562 -58.375 1.824219 -52.101562 1.824219 -43.488281 L 1.824219 -14.886719 C 1.824219 -6.277344 8.101562 0 16.710938 0 Z M 25.539062 -16.78125 C 24.519531 -16.78125 23.714844 -17.585938 23.714844 -18.605469 L 23.714844 -39.769531 C 23.714844 -40.789062 24.519531 -41.59375 25.539062 -41.59375 C 26.5625 -41.59375 27.363281 -40.789062 27.363281 -39.769531 L 27.363281 -18.605469 C 27.363281 -17.585938 26.5625 -16.78125 25.539062 -16.78125 Z M 25.539062 -16.78125 "/></g></g></g><g fill="#178582" fill-opacity="1"><g transform="translate(123.577883, 200.95281)"><g><path d="M 3.722656 0 L 21.890625 0 C 22.914062 0 23.714844 -0.800781 23.714844 -1.824219 L 23.714844 -34.296875 C 23.714844 -35.316406 24.519531 -36.121094 25.539062 -36.121094 C 26.5625 -36.121094 27.363281 -35.316406 27.363281 -34.296875 L 27.363281 -1.679688 C 27.363281 -0.730469 28.238281 0 29.1875 0 L 47.429688 0 C 48.378906 0 49.253906 -0.730469 49.253906 -1.679688 L 49.253906 -34.296875 C 49.253906 -35.316406 50.058594 -36.121094 51.078125 -36.121094 C 52.101562 -36.121094 52.902344 -35.316406 52.902344 -34.296875 L 52.902344 -1.824219 C 52.902344 -0.800781 53.777344 0 54.800781 0 L 72.96875 0 C 73.992188 0 74.792969 -0.800781 74.792969 -1.824219 L 74.792969 -56.550781 C 74.792969 -57.574219 73.917969 -58.375 72.898438 -58.375 L 41.957031 -58.375 C 40.9375 -58.375 40.132812 -57.5 40.132812 -56.480469 L 40.132812 -46.335938 C 40.132812 -45.3125 39.332031 -44.511719 38.308594 -44.511719 C 37.289062 -44.511719 36.484375 -45.3125 36.484375 -46.335938 L 36.484375 -56.550781 C 36.484375 -57.574219 35.609375 -58.375 34.585938 -58.375 L 3.648438 -58.375 C 2.625 -58.375 1.824219 -57.574219 1.824219 -56.550781 L 1.824219 -1.824219 C 1.824219 -0.800781 2.699219 0 3.722656 0 Z M 3.722656 0 "/></g></g></g><g fill="#178582" fill-opacity="1"><g transform="translate(200.193025, 200.95281)"><g><path d="M 3.722656 0 L 21.890625 0 C 22.914062 0 23.714844 -0.800781 23.714844 -1.824219 L 23.714844 -18.605469 C 23.714844 -19.628906 24.589844 -20.429688 25.613281 -20.429688 L 45.3125 -20.429688 C 53.925781 -20.429688 60.199219 -26.707031 60.199219 -35.316406 L 60.199219 -43.488281 C 60.199219 -52.101562 53.925781 -58.375 45.3125 -58.375 L 3.648438 -58.375 C 2.625 -58.375 1.824219 -57.574219 1.824219 -56.550781 L 1.824219 -1.824219 C 1.824219 -0.800781 2.699219 0 3.722656 0 Z M 25.539062 -37.945312 C 24.519531 -37.945312 23.714844 -38.746094 23.714844 -39.769531 C 23.714844 -40.789062 24.519531 -41.59375 25.539062 -41.59375 L 36.484375 -41.59375 C 37.507812 -41.59375 38.308594 -40.789062 38.308594 -39.769531 C 38.308594 -38.746094 37.507812 -37.945312 36.484375 -37.945312 Z M 25.539062 -37.945312 "/></g></g></g><g fill="#178582" fill-opacity="1"><g transform="translate(262.214806, 200.95281)"><g><path d="M 3.648438 0 L 45.3125 0 C 53.925781 0 60.199219 -6.277344 60.199219 -14.886719 L 60.199219 -23.058594 C 60.199219 -31.667969 53.925781 -37.945312 45.3125 -37.945312 L 25.539062 -37.945312 C 24.519531 -37.945312 23.714844 -38.746094 23.714844 -39.769531 C 23.714844 -40.789062 24.519531 -41.59375 25.539062 -41.59375 L 58.375 -41.59375 C 59.398438 -41.59375 60.199219 -42.394531 60.199219 -43.417969 L 60.199219 -56.550781 C 60.199219 -57.574219 59.398438 -58.375 58.375 -58.375 L 16.710938 -58.375 C 8.101562 -58.375 1.824219 -52.101562 1.824219 -43.488281 L 1.824219 -35.316406 C 1.824219 -26.707031 8.101562 -20.429688 16.710938 -20.429688 L 36.484375 -20.429688 C 37.507812 -20.429688 38.308594 -19.628906 38.308594 -18.605469 C 38.308594 -17.585938 37.507812 -16.78125 36.484375 -16.78125 L 3.648438 -16.78125 C 2.625 -16.78125 1.824219 -15.980469 1.824219 -14.957031 L 1.824219 -1.824219 C 1.824219 -0.800781 2.625 0 3.648438 0 Z M 3.648438 0 "/></g></g></g></svg>