<svg xmlns="http://www.w3.org/2000/svg" xmlns:xlink="http://www.w3.org/1999/xlink" width="500" zoomAndPan="magnify" viewBox="0 0 375 374.999991" height="500" preserveAspectRatio="xMidYMid meet" version="1.0"><defs><clipPath id="ad73e98359"><path d="M 193 84 L 323 84 L 323 232 L 193 232 Z M 193 84 " clip-rule="nonzero"/></clipPath><clipPath id="94c5f9d630"><path d="M 139.941406 119.566406 L 285.382812 49.929688 L 341.738281 167.632812 L 196.300781 237.269531 Z M 139.941406 119.566406 " clip-rule="nonzero"/></clipPath><clipPath id="6aa99c1d5c"><path d="M 139.941406 119.566406 L 285.382812 49.929688 L 341.738281 167.632812 L 196.300781 237.269531 Z M 139.941406 119.566406 " clip-rule="nonzero"/></clipPath><clipPath id="f372527b03"><path d="M 55 155 L 116 155 L 116 241 L 55 241 Z M 55 155 " clip-rule="nonzero"/></clipPath><clipPath id="38ab14ae62"><path d="M 110.394531 55.710938 L 342.082031 175.886719 L 264.726562 325.019531 L 33.039062 204.839844 Z M 110.394531 55.710938 " clip-rule="nonzero"/></clipPath><clipPath id="b961748166"><path d="M 341.882812 175.785156 L 110.199219 55.605469 L 32.84375 204.738281 L 264.527344 324.914062 Z M 341.882812 175.785156 " clip-rule="nonzero"/></clipPath><clipPath id="a2e1709fca"><path d="M 104 221 L 317 221 L 317 241 L 104 241 Z M 104 221 " clip-rule="nonzero"/></clipPath><clipPath id="59930edaae"><path d="M 110.394531 55.710938 L 342.082031 175.886719 L 264.726562 325.019531 L 33.039062 204.839844 Z M 110.394531 55.710938 " clip-rule="nonzero"/></clipPath><clipPath id="bcda09e8e7"><path d="M 341.882812 175.785156 L 110.199219 55.605469 L 32.84375 204.738281 L 264.527344 324.914062 Z M 341.882812 175.785156 " clip-rule="nonzero"/></clipPath><clipPath id="f9a5c9d01e"><path d="M 59 154 L 317 154 L 317 233 L 59 233 Z M 59 154 " clip-rule="nonzero"/></clipPath><clipPath id="01461378d2"><path d="M 110.394531 55.710938 L 342.082031 175.886719 L 264.726562 325.019531 L 33.039062 204.839844 Z M 110.394531 55.710938 " clip-rule="nonzero"/></clipPath><clipPath id="bf7d677ef8"><path d="M 341.882812 175.785156 L 110.199219 55.605469 L 32.84375 204.738281 L 264.527344 324.914062 Z M 341.882812 175.785156 " clip-rule="nonzero"/></clipPath><clipPath id="3d74021ee3"><path d="M 68 140 L 307 140 L 307 226 L 68 226 Z M 68 140 " clip-rule="nonzero"/></clipPath><clipPath id="706d33ab9a"><path d="M 110.394531 55.710938 L 342.082031 175.886719 L 264.726562 325.019531 L 33.039062 204.839844 Z M 110.394531 55.710938 " clip-rule="nonzero"/></clipPath><clipPath id="2467112f8f"><path d="M 341.882812 175.785156 L 110.199219 55.605469 L 32.84375 204.738281 L 264.527344 324.914062 Z M 341.882812 175.785156 " clip-rule="nonzero"/></clipPath><clipPath id="93f2da54cd"><path d="M 74 148 L 315 148 L 315 226 L 74 226 Z M 74 148 " clip-rule="nonzero"/></clipPath><clipPath id="a3844939fa"><path d="M 110.394531 55.710938 L 342.082031 175.886719 L 264.726562 325.019531 L 33.039062 204.839844 Z M 110.394531 55.710938 " clip-rule="nonzero"/></clipPath><clipPath id="2629ea4dc4"><path d="M 341.882812 175.785156 L 110.199219 55.605469 L 32.84375 204.738281 L 264.527344 324.914062 Z M 341.882812 175.785156 " clip-rule="nonzero"/></clipPath><clipPath id="0e07afa588"><path d="M 73 139 L 314 139 L 314 217 L 73 217 Z M 73 139 " clip-rule="nonzero"/></clipPath><clipPath id="573911c951"><path d="M 110.394531 55.710938 L 342.082031 175.886719 L 264.726562 325.019531 L 33.039062 204.839844 Z M 110.394531 55.710938 " clip-rule="nonzero"/></clipPath><clipPath id="836de52fc2"><path d="M 341.882812 175.785156 L 110.199219 55.605469 L 32.84375 204.738281 L 264.527344 324.914062 Z M 341.882812 175.785156 " clip-rule="nonzero"/></clipPath><clipPath id="b6c42e7c9e"><path d="M 54 139 L 318 139 L 318 242 L 54 242 Z M 54 139 " clip-rule="nonzero"/></clipPath><clipPath id="a6972e9a19"><path d="M 110.394531 55.710938 L 342.082031 175.886719 L 264.726562 325.019531 L 33.039062 204.839844 Z M 110.394531 55.710938 " clip-rule="nonzero"/></clipPath><clipPath id="8126cf3794"><path d="M 341.882812 175.785156 L 110.199219 55.605469 L 32.84375 204.738281 L 264.527344 324.914062 Z M 341.882812 175.785156 " clip-rule="nonzero"/></clipPath><clipPath id="71d52d26ee"><path d="M 3 143.488281 L 372 143.488281 L 372 287 L 3 287 Z M 3 143.488281 " clip-rule="nonzero"/></clipPath></defs><g clip-path="url(#ad73e98359)"><g clip-path="url(#94c5f9d630)"><g clip-path="url(#6aa99c1d5c)"><path fill="#555fff" d="M 244.089844 214.039062 C 226.859375 222.289062 209.707031 228.003906 193.9375 231.164062 C 204.316406 228 215.042969 223.835938 225.796875 218.6875 C 279.710938 192.871094 313.890625 152.042969 302.132812 127.488281 C 294.136719 110.789062 266.9375 105.925781 233.378906 112.648438 C 275.023438 99.925781 311.011719 103.1875 320.425781 122.847656 C 332.179688 147.394531 298 188.222656 244.089844 214.039062 Z M 200.878906 119.140625 L 200.707031 118.78125 C 222.230469 108.476562 222.117188 104.238281 212.734375 84.632812 L 213.09375 84.460938 C 222.480469 104.0625 225.722656 106.804688 247.246094 96.5 L 247.417969 96.859375 C 225.894531 107.164062 225.992188 111.398438 235.375 131 L 235.015625 131.171875 C 225.628906 111.570312 222.402344 108.835938 200.878906 119.140625 " fill-opacity="1" fill-rule="evenodd"/></g></g></g><g clip-path="url(#f372527b03)"><g clip-path="url(#38ab14ae62)"><g clip-path="url(#b961748166)"><path fill="#555fff" d="M 59.667969 155.433594 L 55.257812 163.941406 L 104.265625 240.621094 L 115.023438 233.898438 Z M 59.667969 155.433594 " fill-opacity="1" fill-rule="nonzero"/></g></g></g><g clip-path="url(#a2e1709fca)"><g clip-path="url(#59930edaae)"><g clip-path="url(#bcda09e8e7)"><path fill="#7d4be6" d="M 108.675781 232.113281 L 104.265625 240.621094 L 312.097656 231.242188 L 316.507812 222.738281 L 315.988281 221.929688 L 113.085938 228.042969 Z M 108.675781 232.113281 " fill-opacity="1" fill-rule="nonzero"/></g></g></g><g clip-path="url(#f9a5c9d01e)"><g clip-path="url(#01461378d2)"><g clip-path="url(#bf7d677ef8)"><path fill="#fff48b" d="M 59.667969 155.433594 L 108.675781 232.113281 L 315.546875 222.78125 C 315.976562 222.761719 316.21875 222.289062 315.988281 221.929688 L 310.933594 214.015625 L 70.257812 154.957031 Z M 59.667969 155.433594 " fill-opacity="1" fill-rule="nonzero"/></g></g></g><g clip-path="url(#3d74021ee3)"><g clip-path="url(#706d33ab9a)"><g clip-path="url(#2467112f8f)"><path fill="#555fff" d="M 260.898438 140.425781 L 258.535156 144.980469 L 248.398438 140.992188 L 245.992188 145.632812 L 235.898438 141.558594 L 233.253906 146.65625 L 223.402344 142.125 L 220.9375 146.871094 L 210.902344 142.691406 L 209.015625 146.328125 L 198.402344 143.257812 L 196.363281 147.191406 L 185.90625 143.824219 L 183.71875 148.039062 L 173.40625 144.390625 L 171.199219 148.644531 L 160.910156 144.953125 L 158.710938 149.191406 L 148.410156 145.519531 L 145.949219 150.265625 L 135.914062 146.085938 L 133.570312 150.601562 L 123.414062 146.648438 L 121.261719 150.800781 L 110.917969 147.210938 L 108.882812 151.136719 L 98.421875 147.777344 L 96.597656 151.292969 L 85.921875 148.34375 L 83.628906 152.761719 L 73.503906 148.75 L 68.738281 157.945312 L 111.921875 225.902344 L 118.171875 223.273438 L 121.929688 225.453125 L 124.421875 225.335938 L 130.242188 221.25 L 134.425781 224.886719 L 136.921875 224.769531 L 143.515625 219.933594 L 146.925781 224.320312 L 149.417969 224.203125 L 154.199219 220.015625 L 159.425781 223.753906 L 161.917969 223.636719 L 168.335938 218.851562 L 171.921875 223.1875 L 174.417969 223.070312 L 180.027344 218.351562 L 184.425781 222.621094 L 186.917969 222.507812 L 196.371094 217.074219 L 259.421875 219.238281 L 261.917969 219.125 L 267.882812 214.902344 L 276.070312 218.535156 L 278.589844 218.371094 L 285.210938 214.769531 L 292.757812 217.734375 L 295.253906 217.617188 L 306.398438 206.328125 Z M 260.898438 140.425781 " fill-opacity="1" fill-rule="nonzero"/></g></g></g><g clip-path="url(#93f2da54cd)"><g clip-path="url(#a3844939fa)"><g clip-path="url(#2629ea4dc4)"><path fill="#7d4be6" d="M 268.351562 164.046875 L 270.308594 164.863281 L 271.9375 161.71875 L 263.820312 161.070312 L 261.933594 162.171875 L 259.703125 166.476562 L 265.886719 168.796875 Z M 266.386719 155.835938 L 264.316406 155.132812 L 266.996094 149.964844 L 274.457031 148.195312 L 277.003906 149.515625 L 274.617188 154.117188 L 268.34375 152.066406 Z M 253.65625 156.839844 L 252.164062 155.023438 L 254.496094 150.53125 L 261.851562 148.707031 L 264.5 150.078125 L 261.769531 155.34375 L 255.835938 152.632812 Z M 249.429688 155.597656 C 249.398438 155.789062 243.339844 153.199219 243.339844 153.199219 L 241.378906 156.976562 L 239.558594 155.796875 L 241.996094 151.097656 L 250.492188 149.492188 L 252 150.644531 C 252 150.644531 249.464844 155.410156 249.429688 155.597656 Z M 230.84375 153.761719 L 228.84375 157.613281 L 227.25 156 L 229.496094 151.664062 L 236.972656 149.898438 L 239.503906 151.210938 L 237.121094 155.804688 Z M 216.285156 158.289062 L 214.574219 156.890625 L 216.996094 152.222656 L 224.558594 150.871094 L 227 151.769531 L 224.414062 156.757812 L 218.339844 154.328125 Z M 203.800781 158.792969 L 202.183594 157.238281 L 204.492188 152.785156 L 212.09375 150.71875 L 214.5 152.335938 L 212.335938 156.503906 L 205.835938 154.890625 Z M 193.34375 155.457031 L 191.4375 159.128906 L 190.113281 156.992188 L 192 153.351562 L 200.261719 151.625 L 202.007812 152.898438 L 199.53125 157.667969 Z M 179.066406 159.4375 L 177.1875 158.371094 L 179.496094 153.914062 L 186.503906 152.277344 L 189.503906 153.464844 L 187.539062 157.246094 L 180.839844 156.019531 Z M 166.605469 159.929688 L 164.925781 158.480469 L 167 154.476562 L 173.582031 152.617188 C 173.671875 152.539062 177.007812 154.023438 177.007812 154.023438 L 174.550781 158.761719 L 168.34375 156.582031 Z M 155.84375 157.148438 L 153.804688 161.085938 L 152.191406 159.5 C 152.191406 159.5 154.417969 155.234375 154.503906 155.042969 L 163.253906 153.570312 L 164.507812 154.589844 L 162.582031 158.308594 Z M 141.183594 161.875 L 139.6875 160.0625 C 139.6875 160.0625 141.898438 155.742188 142 155.605469 L 149.726562 153.351562 L 152.003906 155.15625 L 149.457031 160.066406 L 143.34375 157.707031 Z M 128.414062 162.964844 L 126.621094 161.730469 L 129.5 156.171875 L 137.214844 154.53125 L 139.507812 155.722656 L 137.34375 159.890625 L 130.84375 158.277344 Z M 118.347656 158.839844 C 118.347656 158.839844 116.238281 162.660156 116.28125 162.824219 C 116.324219 162.988281 113.699219 163.109375 113.699219 163.109375 L 117.003906 156.734375 L 124.527344 154.273438 L 127.011719 156.285156 L 124.703125 160.730469 Z M 110.3125 153.953125 L 114.511719 156.851562 L 112.207031 161.296875 L 101.769531 162.574219 C 101.769531 162.574219 104.402344 157.492188 104.507812 157.300781 Z M 81.152344 156.0625 C 81.171875 155.929688 89.503906 157.976562 89.503906 157.976562 L 87.199219 162.421875 L 80.84375 160.535156 L 77.191406 167.566406 L 74.699219 167.683594 L 79.5 158.429688 Z M 96.949219 169.617188 L 94.644531 174.0625 L 88.289062 172.171875 L 84.640625 179.207031 L 82.144531 179.320312 L 86.945312 170.070312 L 92.5 168.441406 Z M 118.074219 167.144531 L 121.949219 168.492188 L 120.347656 171.578125 L 118.363281 170.816406 L 116.394531 174.613281 L 100.792969 171.609375 L 98.832031 175.386719 L 97.082031 174.066406 C 97.082031 174.066406 99.28125 169.601562 99.449219 169.503906 Z M 128.527344 174.746094 L 121.929688 173.21875 C 121.929688 173.21875 124.277344 168.460938 124.445312 168.371094 L 128.910156 166.039062 C 128.929688 165.925781 134.453125 167.921875 134.453125 167.921875 L 132.832031 171.039062 L 130.863281 170.246094 Z M 141.175781 173.894531 L 134.984375 171.582031 L 136.941406 167.808594 L 141.453125 165.78125 L 146.949219 167.359375 L 145.617188 169.921875 L 143.359375 169.683594 Z M 155.855469 169.125 L 153.609375 173.453125 L 147.425781 171.125 L 149.4375 167.25 L 156.742188 164.847656 C 156.679688 164.734375 159.445312 166.796875 159.445312 166.796875 L 157.945312 169.683594 Z M 165.75 173.585938 L 159.601562 171.199219 L 161.941406 166.683594 L 169.5625 164.625 L 171.949219 166.234375 L 170.433594 169.148438 L 168.359375 168.558594 Z M 178.25 173.019531 L 171.855469 171.105469 L 174.441406 166.117188 L 178.933594 162.214844 L 184.445312 165.671875 L 183.007812 168.4375 L 180.855469 167.996094 Z M 193.355469 167.429688 L 191.117188 171.746094 L 185.074219 168.933594 L 186.664062 165.867188 L 188.734375 162.261719 L 196.933594 165.105469 L 195.460938 167.949219 Z M 205.859375 166.867188 L 203.675781 171.078125 L 197.765625 168.222656 L 199.441406 164.992188 L 204.503906 162.21875 L 209.445312 164.539062 L 208.007812 167.308594 Z M 216.492188 169.894531 L 210.347656 167.496094 L 211.9375 164.429688 L 216.730469 160.90625 L 221.941406 163.980469 L 220.5625 166.636719 L 218.355469 166.304688 Z M 228.667969 169.949219 L 222.566406 167.464844 L 224.433594 163.863281 L 229.609375 160.535156 L 234.441406 163.414062 L 233.1875 165.828125 L 230.851562 165.738281 Z M 243.355469 165.175781 L 241.375 168.996094 L 235.199219 166.652344 L 236.9375 163.300781 L 243.09375 160.851562 L 246.945312 162.847656 L 245.445312 165.738281 Z M 253.695312 168.769531 L 247.578125 166.320312 L 249.4375 162.734375 L 254.351562 159.640625 L 259.441406 162.28125 L 258.109375 164.851562 L 255.855469 164.609375 Z M 274.4375 161.609375 L 278.863281 159.910156 C 278.863281 159.910156 284.347656 161.035156 284.441406 161.15625 L 280.6875 168.398438 L 272.40625 165.523438 Z M 274.449219 173.585938 L 286.046875 170.285156 L 291.882812 172.796875 L 290.167969 176.097656 L 272.550781 177.25 L 274.453125 173.585938 Z M 261.949219 174.152344 L 270.183594 171.917969 L 271.953125 173.703125 L 270.519531 176.464844 L 268.269531 176.03125 L 266.160156 180.09375 L 260.03125 177.847656 Z M 258.015625 176.765625 L 255.769531 176.585938 L 254.265625 179.484375 L 247.828125 177.832031 L 249.449219 174.707031 L 254.125 172.523438 L 259.457031 174.253906 Z M 236.949219 175.277344 L 239.988281 172.96875 L 246.953125 174.824219 L 245.742188 177.164062 L 243.269531 177.152344 L 241.382812 180.796875 L 235.289062 178.480469 Z M 224.449219 175.84375 L 232.230469 173.867188 L 234.457031 175.390625 L 233.191406 177.832031 L 230.773438 177.71875 L 228.855469 181.414062 L 222.605469 179.398438 Z M 211.953125 176.40625 L 218.675781 173.359375 L 221.960938 175.953125 C 221.960938 175.953125 220.511719 178.714844 220.503906 178.761719 C 220.496094 178.8125 218.277344 178.28125 218.277344 178.28125 L 216.464844 181.777344 L 209.65625 180.835938 Z M 199.449219 176.96875 L 206.894531 175.382812 L 209.457031 176.515625 L 208 179.324219 L 205.773438 178.847656 L 203.46875 183.289062 L 197.71875 180.304688 Z M 186.953125 177.535156 L 193.414062 175.242188 L 196.957031 177.082031 L 195.730469 179.449219 L 193.273438 179.414062 L 191.195312 183.417969 L 184.496094 182.273438 Z M 182.894531 180.664062 L 180.777344 179.972656 C 180.777344 179.972656 178.664062 184.0625 178.621094 184.128906 C 178.582031 184.195312 172.71875 181.445312 172.71875 181.445312 L 174.457031 178.097656 L 179.566406 176.367188 L 184.460938 177.644531 Z M 161.953125 178.660156 L 166.765625 175.90625 L 171.957031 178.207031 L 170.378906 181.253906 L 168.273438 180.539062 L 166.320312 184.308594 L 160.042969 182.339844 Z M 158 181.585938 L 155.777344 181.105469 C 155.777344 181.105469 153.785156 184.804688 153.804688 184.902344 C 153.824219 185 147.566406 182.863281 147.566406 182.863281 L 149.453125 179.226562 L 154.175781 177.980469 L 159.460938 178.773438 Z M 136.957031 179.789062 L 140.628906 177.570312 L 146.964844 179.335938 L 145.589844 181.980469 L 143.28125 181.667969 L 141.621094 184.652344 L 135.1875 183.203125 Z M 134.460938 179.902344 L 133.082031 182.554688 L 130.777344 182.230469 L 129.203125 185.261719 L 122.71875 183.699219 L 124.453125 180.351562 C 124.378906 180.429688 127.777344 178.515625 127.777344 178.515625 Z M 121.988281 180.460938 L 120.628906 183.082031 C 120.628906 183.082031 120.125 184.832031 120.007812 184.773438 C 119.894531 184.714844 108.226562 183.242188 108.226562 183.242188 L 106.796875 186.003906 L 104.878906 185.007812 L 106.886719 181.140625 L 108.648438 180.25 Z M 102.480469 184.9375 L 95.726562 183.816406 L 92.078125 190.847656 L 89.585938 190.960938 L 94.382812 181.710938 L 104.390625 181.257812 Z M 134.382812 191.882812 L 132.496094 195.527344 L 128.171875 194.328125 L 126.632812 197.296875 L 125.398438 195.03125 L 123.144531 196.652344 C 123.144531 196.652344 115.699219 194.820312 115.675781 194.890625 L 113.980469 198.160156 L 112.882812 195.582031 L 114.332031 192.785156 L 115.84375 191.097656 Z M 144.710938 195.492188 L 135.164062 195.0625 L 136.875 191.761719 L 137.992188 191.023438 L 146.878906 191.3125 Z M 149.375 191.203125 L 150.976562 190.105469 L 159.382812 190.75 L 157.203125 194.953125 L 148.121094 193.621094 Z M 171.878906 190.191406 L 169.464844 194.84375 L 160.691406 192.914062 L 161.871094 190.640625 L 163.871094 189.839844 Z M 174.371094 190.074219 L 175.65625 188.785156 L 184.375 189.628906 L 182.226562 193.769531 L 173.121094 192.484375 Z M 186.875 189.511719 L 187.722656 188.734375 L 196.878906 189.058594 L 194.460938 193.722656 L 185.617188 191.9375 Z M 199.371094 188.949219 L 200.292969 188.027344 L 209.378906 188.5 L 207.296875 192.519531 L 198.125 191.363281 L 199.375 188.953125 Z M 211.871094 188.382812 C 211.933594 188.316406 212.554688 187.46875 212.554688 187.46875 L 221.875 187.929688 L 219.277344 192.941406 L 210.65625 190.722656 C 210.65625 190.722656 211.804688 188.449219 211.871094 188.382812 Z M 224.371094 187.820312 L 234.378906 187.367188 L 232.144531 191.671875 L 223.074219 190.324219 Z M 236.867188 187.257812 L 246.875 186.804688 L 244.492188 191.398438 L 235.597656 189.710938 Z M 248.074219 189.1875 L 249.363281 186.695312 L 259.371094 186.242188 L 257.976562 188.929688 L 257.082031 189.460938 Z M 271.875 185.679688 L 269.804688 189.667969 L 260.59375 188.585938 L 261.867188 186.136719 Z M 274.367188 185.566406 L 299.320312 184.4375 L 295.753906 191.316406 L 273.140625 187.933594 Z M 313.90625 207.265625 L 314.199219 207.722656 L 309.398438 216.972656 L 295.226562 217.609375 L 300.027344 208.359375 L 302.019531 205.769531 Z M 292.738281 217.726562 L 278.570312 218.367188 L 283.371094 209.113281 L 297.539062 208.476562 Z M 276.046875 218.53125 L 261.894531 219.117188 L 266.695312 209.867188 L 280.875 209.226562 Z M 259.40625 219.226562 L 186.902344 222.5 L 191.699219 213.246094 L 264.203125 209.976562 Z M 184.40625 222.613281 L 174.402344 223.066406 L 179.203125 213.8125 L 189.207031 213.359375 Z M 171.910156 223.179688 L 161.902344 223.632812 L 166.703125 214.378906 L 176.707031 213.925781 Z M 159.414062 223.742188 L 149.40625 224.191406 L 154.207031 214.941406 L 164.210938 214.488281 Z M 146.910156 224.304688 L 136.902344 224.757812 L 141.703125 215.503906 L 151.707031 215.050781 Z M 134.410156 224.871094 L 124.40625 225.324219 L 129.203125 216.070312 L 139.210938 215.617188 Z M 121.914062 225.433594 L 111.910156 225.886719 L 116.707031 216.632812 L 126.714844 216.179688 Z M 278.789062 197.34375 L 306.757812 196.082031 L 305.640625 198.234375 L 277.644531 199.558594 Z M 274.984375 199.980469 L 274.777344 199.683594 L 265.140625 200.121094 L 266.289062 197.90625 L 276.292969 197.457031 Z M 258.105469 200.4375 L 252.636719 200.683594 L 253.785156 198.472656 L 263.789062 198.019531 L 262.632812 200.234375 L 260.597656 200.328125 L 259.449219 202.542969 Z M 241.289062 199.035156 L 251.296875 198.589844 L 250.148438 200.800781 L 240.140625 201.253906 L 241.292969 199.035156 Z M 228.789062 199.601562 L 238.792969 199.148438 L 237.648438 201.363281 L 227.640625 201.8125 Z M 215.382812 202.371094 L 216.53125 200.15625 L 226.296875 199.714844 L 225.148438 201.929688 Z M 203.789062 200.726562 L 213.796875 200.273438 L 212.648438 202.488281 C 212.648438 202.488281 202.804688 202.929688 202.640625 202.9375 C 202.476562 202.949219 203.789062 200.726562 203.789062 200.726562 Z M 191.292969 201.292969 L 201.296875 200.839844 L 200.148438 203.054688 L 190.144531 203.503906 Z M 178.792969 201.859375 L 188.796875 201.40625 L 187.648438 203.621094 L 185.8125 203.714844 L 184.570312 206.105469 L 183.109375 203.824219 L 177.640625 204.070312 L 178.789062 201.855469 Z M 102.007812 157.414062 L 99.695312 161.867188 L 93.347656 159.964844 L 91.609375 163.316406 L 89.550781 162.59375 L 92.003906 157.859375 L 96.382812 154.960938 Z M 166.296875 202.421875 L 176.300781 201.96875 L 175.152344 204.183594 L 173.113281 204.273438 L 171.960938 206.492188 L 170.617188 204.386719 C 170.617188 204.386719 165.285156 204.628906 165.148438 204.632812 C 165.007812 204.644531 166.296875 202.421875 166.296875 202.421875 Z M 153.792969 202.984375 L 163.796875 202.53125 L 162.648438 204.746094 L 160.597656 204.859375 L 159.457031 207.054688 L 158.117188 204.949219 L 152.644531 205.199219 Z M 150.140625 205.3125 L 148.101562 205.40625 C 148.101562 205.40625 147.496094 206.578125 146.953125 207.617188 L 145.613281 205.515625 L 135.605469 205.96875 L 134.457031 208.179688 L 133.074219 206.15625 L 134.265625 203.863281 L 151.289062 203.09375 Z M 130.539062 206.152344 L 123.109375 206.535156 L 121.960938 208.746094 L 120.617188 206.644531 L 121.765625 204.429688 L 131.714844 203.890625 L 130.542969 206.15625 Z M 118.125 206.757812 L 110.613281 207.09375 L 106.964844 214.128906 L 104.46875 214.242188 L 109.269531 204.992188 L 119.273438 204.539062 Z M 111.828125 192.898438 L 110.441406 195.570312 L 103.164062 195.457031 L 99.488281 202.445312 L 96.996094 202.558594 C 97.09375 202.46875 101.820312 193.355469 101.820312 193.355469 Z M 111.828125 192.898438 " fill-opacity="1" fill-rule="nonzero"/></g></g></g><g clip-path="url(#0e07afa588)"><g clip-path="url(#573911c951)"><g clip-path="url(#836de52fc2)"><path fill="#fff48b" d="M 266.992188 149.964844 L 277 149.511719 L 270.902344 139.976562 L 260.898438 140.425781 Z M 254.496094 150.53125 L 248.398438 140.992188 L 258.402344 140.542969 L 264.5 150.078125 Z M 241.996094 151.097656 L 235.898438 141.558594 L 245.90625 141.109375 L 252 150.644531 Z M 229.496094 151.65625 L 223.398438 142.117188 L 233.402344 141.667969 L 239.5 151.203125 Z M 216.996094 152.222656 L 210.898438 142.683594 L 220.90625 142.234375 L 227 151.769531 Z M 204.496094 152.789062 L 198.402344 143.25 L 208.40625 142.800781 L 214.503906 152.335938 Z M 192 153.351562 L 185.90625 143.8125 L 195.910156 143.363281 L 202.007812 152.898438 Z M 179.496094 153.914062 L 173.402344 144.378906 L 183.40625 143.925781 L 189.503906 153.464844 Z M 167 154.480469 L 160.902344 144.945312 L 170.90625 144.492188 L 177.003906 154.03125 Z M 154.503906 155.042969 L 148.40625 145.503906 L 158.410156 145.054688 L 164.507812 154.589844 Z M 142 155.605469 L 135.902344 146.070312 L 145.910156 145.617188 L 152.003906 155.15625 Z M 129.5 156.171875 L 123.40625 146.636719 L 133.410156 146.183594 L 139.507812 155.722656 Z M 117.003906 156.734375 L 110.90625 147.199219 L 120.914062 146.746094 L 127.011719 156.285156 Z M 104.5 157.300781 L 98.40625 147.761719 L 108.410156 147.308594 L 114.507812 156.847656 Z M 92.003906 157.859375 L 85.910156 148.324219 L 95.914062 147.871094 L 102.007812 157.414062 Z M 73.839844 148.875 L 83.414062 148.441406 L 89.507812 157.980469 L 79.503906 158.433594 L 73.644531 149.253906 C 73.539062 149.09375 73.648438 148.878906 73.839844 148.875 Z M 268.339844 152.070312 L 278.347656 151.617188 L 284.441406 161.15625 L 274.4375 161.609375 Z M 271.9375 161.71875 L 261.933594 162.171875 L 255.835938 152.632812 L 265.84375 152.183594 Z M 259.441406 162.285156 L 249.433594 162.738281 L 243.339844 153.199219 L 253.34375 152.75 Z M 246.945312 162.847656 L 236.9375 163.300781 L 230.84375 153.761719 L 240.847656 153.3125 Z M 234.441406 163.414062 L 224.433594 163.863281 L 218.339844 154.328125 L 228.34375 153.875 Z M 221.941406 163.980469 L 211.9375 164.429688 L 205.839844 154.894531 L 215.84375 154.441406 Z M 209.445312 164.539062 L 199.441406 164.992188 L 193.34375 155.457031 L 203.347656 155.003906 Z M 196.941406 165.105469 L 186.9375 165.554688 L 180.839844 156.019531 L 190.847656 155.566406 Z M 184.445312 165.671875 L 174.4375 166.121094 L 168.339844 156.585938 L 178.347656 156.132812 Z M 171.949219 166.234375 L 161.941406 166.683594 L 155.84375 157.148438 L 165.851562 156.695312 Z M 159.449219 166.800781 L 149.441406 167.25 L 143.347656 157.714844 L 153.351562 157.261719 Z M 146.949219 167.359375 L 136.941406 167.808594 L 130.847656 158.273438 L 140.851562 157.820312 Z M 93.347656 159.964844 L 115.851562 158.945312 L 121.949219 168.484375 L 99.445312 169.503906 Z M 128.351562 158.386719 L 134.449219 167.925781 L 124.445312 168.375 L 118.347656 158.839844 Z M 96.949219 169.617188 L 86.945312 170.070312 L 80.847656 160.53125 L 90.855469 160.078125 Z M 268.351562 164.046875 L 285.78125 163.257812 L 291.882812 172.796875 L 274.453125 173.585938 Z M 261.949219 174.152344 L 255.851562 164.613281 L 265.859375 164.160156 L 271.953125 173.699219 Z M 259.457031 174.261719 L 249.453125 174.710938 L 243.355469 165.175781 L 253.363281 164.722656 Z M 246.953125 174.824219 L 236.949219 175.277344 L 230.851562 165.738281 L 240.859375 165.285156 Z M 234.457031 175.390625 L 224.449219 175.84375 L 218.355469 166.304688 L 228.359375 165.851562 Z M 221.960938 175.953125 L 211.953125 176.40625 L 205.859375 166.867188 L 215.863281 166.414062 Z M 209.457031 176.515625 L 199.449219 176.96875 L 193.355469 167.429688 L 203.359375 166.980469 Z M 196.957031 177.082031 L 186.953125 177.535156 L 180.855469 167.996094 L 190.859375 167.546875 Z M 184.460938 177.644531 L 174.457031 178.097656 L 168.359375 168.558594 L 178.363281 168.105469 Z M 171.957031 178.207031 L 161.953125 178.660156 L 155.855469 169.125 L 165.863281 168.671875 Z M 159.460938 178.773438 L 149.453125 179.226562 L 143.355469 169.691406 L 153.363281 169.238281 Z M 130.859375 170.25 L 140.867188 169.800781 L 146.964844 179.335938 L 136.957031 179.789062 Z M 118.359375 170.816406 L 128.363281 170.363281 L 134.460938 179.902344 L 124.453125 180.351562 Z M 100.785156 171.605469 L 115.890625 170.925781 L 121.988281 180.460938 L 106.886719 181.148438 Z M 104.390625 181.257812 L 94.382812 181.710938 L 88.289062 172.171875 L 98.292969 171.722656 Z M 108.230469 183.25 L 128.292969 182.34375 L 134.382812 191.882812 L 114.328125 192.789062 Z M 111.828125 192.898438 L 101.824219 193.351562 L 95.726562 183.816406 L 105.730469 183.363281 Z M 272.695312 187.804688 L 300.664062 186.542969 L 306.757812 196.082031 L 278.789062 197.34375 Z M 266.289062 197.90625 L 260.191406 188.371094 L 270.195312 187.917969 L 276.292969 197.457031 Z M 247.691406 188.9375 L 257.699219 188.484375 L 263.792969 198.023438 L 253.789062 198.472656 Z M 235.191406 189.496094 L 245.195312 189.042969 L 251.292969 198.582031 L 241.289062 199.035156 Z M 222.691406 190.0625 L 232.699219 189.609375 L 238.792969 199.148438 L 228.789062 199.601562 Z M 210.195312 190.628906 L 220.199219 190.175781 L 226.296875 199.714844 L 216.289062 200.167969 Z M 197.699219 191.191406 L 207.703125 190.738281 L 213.800781 200.277344 L 203.792969 200.726562 Z M 185.195312 191.753906 L 195.199219 191.300781 L 201.296875 200.839844 L 191.292969 201.292969 Z M 172.695312 192.320312 L 182.703125 191.867188 L 188.796875 201.40625 L 178.792969 201.859375 Z M 160.199219 192.882812 L 170.207031 192.429688 L 176.300781 201.96875 L 166.296875 202.421875 Z M 147.695312 193.445312 L 157.703125 192.996094 L 163.796875 202.53125 L 153.792969 202.984375 Z M 128.167969 194.324219 L 145.195312 193.554688 L 151.289062 203.09375 L 134.265625 203.863281 Z M 115.667969 194.890625 L 125.675781 194.441406 L 131.769531 203.976562 L 121.765625 204.429688 Z M 119.273438 204.542969 L 109.265625 204.996094 L 103.171875 195.457031 L 113.175781 195.007812 Z M 258.105469 200.4375 L 264.203125 209.976562 L 191.699219 213.246094 L 185.605469 203.707031 Z M 183.109375 203.824219 L 189.207031 213.359375 L 179.203125 213.8125 L 173.105469 204.273438 Z M 170.613281 204.390625 L 176.707031 213.925781 L 166.703125 214.378906 L 160.605469 204.839844 Z M 158.113281 204.957031 L 164.210938 214.492188 L 154.203125 214.945312 L 148.109375 205.40625 Z M 145.617188 205.515625 L 151.714844 215.054688 L 141.707031 215.507812 L 135.613281 205.96875 Z M 133.113281 206.082031 L 139.210938 215.617188 L 129.203125 216.070312 L 123.109375 206.535156 Z M 126.710938 216.183594 L 116.707031 216.636719 L 110.609375 207.101562 L 120.613281 206.648438 Z M 268.269531 176.027344 L 293.222656 174.902344 L 299.320312 184.4375 L 274.367188 185.566406 Z M 261.867188 186.132812 L 255.773438 176.59375 L 265.777344 176.140625 L 271.875 185.679688 Z M 249.367188 186.691406 L 243.269531 177.152344 L 253.277344 176.703125 L 259.371094 186.238281 Z M 230.773438 177.71875 L 240.777344 177.269531 L 246.875 186.804688 L 236.867188 187.257812 Z M 218.277344 178.28125 L 228.28125 177.828125 L 234.378906 187.367188 L 224.371094 187.820312 Z M 205.773438 178.847656 L 215.777344 178.394531 L 221.875 187.929688 L 211.871094 188.382812 Z M 193.273438 179.414062 L 203.28125 178.960938 L 209.375 188.496094 L 199.371094 188.949219 Z M 180.777344 179.972656 L 190.785156 179.523438 L 196.878906 189.058594 L 186.875 189.511719 Z M 168.273438 180.539062 L 178.28125 180.085938 L 184.375 189.625 L 174.371094 190.074219 Z M 155.777344 181.105469 L 165.78125 180.652344 L 171.878906 190.191406 L 161.871094 190.640625 Z M 143.28125 181.667969 L 153.285156 181.214844 L 159.382812 190.75 L 149.375 191.203125 Z M 130.777344 182.230469 L 140.78125 181.777344 L 146.878906 191.316406 L 136.871094 191.769531 Z M 308.105469 198.1875 L 313.90625 207.265625 C 314.035156 207.46875 313.898438 207.734375 313.65625 207.746094 L 300.03125 208.363281 L 293.933594 198.824219 Z M 291.445312 198.941406 L 297.539062 208.476562 L 283.371094 209.113281 L 277.273438 199.578125 Z M 274.777344 199.691406 L 280.875 209.226562 L 266.695312 209.867188 L 260.597656 200.328125 Z M 274.777344 199.691406 " fill-opacity="1" fill-rule="nonzero"/></g></g></g><g clip-path="url(#b6c42e7c9e)"><g clip-path="url(#a6972e9a19)"><g clip-path="url(#8126cf3794)"><path fill="#555fff" d="M 60.308594 154.628906 L 69.773438 154.199219 L 72.921875 148.132812 L 73.800781 148.089844 L 83.824219 147.636719 L 84.683594 148.984375 L 85.421875 147.566406 L 86.609375 147.515625 L 96.320312 147.074219 L 97.183594 148.421875 L 97.917969 147.003906 L 99.035156 146.953125 L 108.816406 146.511719 L 109.679688 147.863281 L 110.414062 146.441406 L 111.519531 146.394531 L 121.3125 145.949219 L 122.175781 147.300781 L 122.910156 145.882812 L 124.285156 145.820312 L 133.8125 145.390625 L 134.671875 146.738281 L 135.40625 145.320312 L 136.601562 145.265625 L 146.3125 144.828125 L 147.171875 146.179688 L 147.90625 144.761719 L 149.230469 144.699219 L 158.808594 144.269531 L 159.667969 145.617188 L 160.402344 144.199219 L 161.621094 144.144531 L 171.304688 143.707031 L 172.164062 145.054688 L 172.910156 143.617188 L 174.148438 143.5625 L 183.808594 143.125 L 184.671875 144.476562 L 185.496094 142.886719 L 186.105469 143.0625 C 186.132812 143.070312 186.167969 143.078125 186.203125 143.082031 C 186.320312 143.039062 186.441406 143.003906 186.574219 143 L 196.308594 142.558594 L 197.167969 143.910156 L 197.90625 142.488281 L 199.285156 142.425781 L 208.804688 141.996094 L 209.652344 143.324219 C 209.933594 142.804688 210.203125 142.308594 210.203125 142.308594 L 210.414062 141.925781 L 211.542969 141.875 L 221.308594 141.433594 L 222.167969 142.78125 L 222.699219 141.761719 L 223.117188 141.980469 C 223.324219 141.585938 223.726562 141.328125 224.171875 141.304688 L 233.804688 140.871094 L 234.667969 142.222656 C 234.816406 141.929688 234.992188 141.59375 235.195312 141.195312 L 235.402344 140.796875 L 236.542969 140.75 L 246.308594 140.308594 L 247.167969 141.65625 L 247.90625 140.234375 L 249.175781 140.175781 L 258.804688 139.742188 L 259.667969 141.089844 L 260.402344 139.671875 L 261.597656 139.617188 L 271.3125 139.179688 L 277.207031 148.398438 L 277.894531 149.472656 L 277.15625 150.890625 L 278.753906 150.816406 L 284.828125 160.3125 L 285.335938 161.117188 L 284.601562 162.535156 L 286.199219 162.460938 L 292.246094 171.933594 L 292.78125 172.757812 L 292.042969 174.179688 L 293.644531 174.105469 L 299.644531 183.503906 L 300.214844 184.398438 L 299.480469 185.816406 L 301.078125 185.742188 L 307.183594 195.304688 L 307.660156 196.042969 L 306.921875 197.460938 L 308.519531 197.386719 L 314.566406 206.84375 L 315.101562 207.679688 L 311.832031 213.976562 L 316.648438 221.507812 L 317.402344 222.699219 L 312.578125 232 L 104.296875 241.394531 L 103.847656 241.414062 L 54.601562 164.359375 L 54.355469 163.980469 L 59.183594 154.675781 Z M 312.890625 208.558594 L 300.511719 209.117188 L 296.542969 216.773438 L 308.917969 216.214844 Z M 298.722656 209.199219 L 298.019531 209.230469 L 294.046875 216.886719 L 294.75 216.859375 Z M 296.230469 209.3125 L 283.851562 209.871094 L 279.882812 217.527344 L 292.257812 216.96875 Z M 92.484375 158.621094 L 91.75 160.039062 L 92.128906 160.628906 L 92.863281 159.210938 L 94.234375 159.148438 L 100.378906 158.871094 L 100.699219 158.25 Z M 79.664062 159.804688 L 80.367188 159.777344 L 80.566406 159.769531 L 87.878906 159.4375 L 88.203125 158.816406 L 79.984375 159.1875 Z M 94.796875 180.914062 L 103.011719 180.542969 L 97.882812 172.515625 L 89.671875 172.886719 Z M 102.238281 192.550781 L 110.453125 192.179688 L 105.324219 184.152344 L 97.105469 184.523438 Z M 109.679688 204.195312 L 117.898438 203.824219 L 112.769531 195.800781 L 104.554688 196.171875 Z M 117.121094 215.835938 L 125.335938 215.464844 L 120.210938 207.441406 L 111.992188 207.8125 Z M 127.984375 216.734375 L 128.308594 216.109375 L 123.183594 208.085938 L 122.859375 208.710938 Z M 140.484375 216.167969 C 140.613281 215.917969 140.722656 215.710938 140.808594 215.542969 L 135.679688 207.519531 L 135.359375 208.144531 Z M 152.984375 215.609375 L 153.308594 214.984375 L 148.179688 206.957031 L 147.855469 207.582031 Z M 165.484375 215.042969 L 165.808594 214.417969 L 160.675781 206.390625 L 160.351562 207.015625 Z M 177.984375 214.476562 L 178.308594 213.851562 L 173.175781 205.824219 L 172.851562 206.449219 Z M 190.480469 213.914062 L 190.804688 213.289062 L 185.671875 205.261719 L 185.347656 205.886719 Z M 265.476562 210.53125 L 265.800781 209.90625 L 260.671875 201.878906 L 260.347656 202.503906 Z M 276.191406 199.332031 L 275.871094 199.957031 L 276.050781 200.238281 L 276.375 199.617188 Z M 266.769531 198.664062 L 266.445312 199.285156 L 274.664062 198.914062 L 274.984375 198.289062 Z M 271.703125 187.695312 C 271.582031 187.925781 271.46875 188.148438 271.375 188.324219 L 271.472656 188.476562 L 271.800781 187.847656 Z M 262.351562 186.886719 L 262.027344 187.511719 L 270.242188 187.140625 C 270.347656 186.941406 270.457031 186.722656 270.566406 186.515625 Z M 268.859375 175.21875 L 270.320312 175.15625 L 270.640625 174.53125 L 262.425781 174.902344 L 262.101562 175.527344 L 266.183594 175.34375 L 267.046875 176.695312 L 267.78125 175.277344 Z M 268.90625 163.246094 L 270.3125 163.179688 L 270.636719 162.558594 L 262.421875 162.929688 C 262.328125 163.105469 262.214844 163.328125 262.097656 163.554688 L 266.273438 163.363281 L 267.132812 164.710938 L 267.867188 163.292969 Z M 252.929688 153.542969 L 244.714844 153.914062 L 249.84375 161.941406 L 258.058594 161.570312 Z M 240.433594 154.105469 L 232.21875 154.476562 L 237.347656 162.503906 L 245.5625 162.132812 Z M 227.933594 154.667969 L 219.714844 155.042969 L 224.84375 163.066406 L 233.058594 162.695312 Z M 218.414062 155.878906 L 218.089844 156.503906 L 223.222656 164.53125 L 223.546875 163.90625 Z M 215.433594 155.234375 L 207.21875 155.609375 L 212.347656 163.636719 L 220.566406 163.265625 Z M 202.9375 155.796875 L 194.722656 156.167969 L 199.847656 164.195312 L 208.0625 163.828125 Z M 190.4375 156.363281 L 182.222656 156.734375 L 187.355469 164.765625 L 195.570312 164.390625 Z M 177.933594 156.929688 L 169.722656 157.300781 L 174.851562 165.328125 L 183.066406 164.957031 Z M 165.4375 157.488281 L 157.226562 157.863281 L 162.355469 165.890625 L 170.570312 165.519531 Z M 152.941406 158.054688 L 144.722656 158.429688 L 149.855469 166.457031 L 158.070312 166.085938 Z M 140.4375 158.621094 L 132.226562 158.996094 L 137.351562 167.019531 L 145.566406 166.648438 Z M 127.941406 159.183594 L 119.722656 159.554688 L 124.855469 167.582031 L 133.070312 167.210938 Z M 118.417969 160.390625 L 118.09375 161.011719 L 123.195312 168.996094 L 123.535156 168.398438 Z M 99.1875 171.679688 L 99.566406 172.269531 L 100.304688 170.851562 L 101.882812 170.78125 L 116.296875 170.128906 L 117.148438 171.453125 L 117.875 170.054688 L 119.507812 169.980469 L 120.316406 169.941406 L 120.640625 169.320312 L 99.929688 170.253906 Z M 106.984375 183.878906 L 107.761719 182.492188 L 109.144531 182.429688 L 120.289062 181.921875 L 120.632812 181.296875 L 107.367188 181.898438 L 106.628906 183.316406 Z M 116.539062 194.074219 L 126.085938 193.644531 L 126.929688 194.960938 L 127.703125 193.574219 L 128.933594 193.519531 L 132.75 193.347656 L 133.074219 192.722656 L 114.8125 193.550781 L 114.074219 194.96875 L 114.457031 195.558594 L 115.191406 194.140625 Z M 123.945312 205.71875 L 130.179688 205.4375 C 130.253906 205.308594 130.367188 205.085938 130.503906 204.816406 L 122.246094 205.1875 L 121.507812 206.609375 L 121.890625 207.199219 L 122.625 205.777344 Z M 136.445312 205.152344 L 146.027344 204.722656 L 146.890625 206.070312 L 147.625 204.652344 L 148.738281 204.601562 L 149.660156 204.558594 L 149.984375 203.9375 L 134.75 204.625 L 134.011719 206.042969 L 134.394531 206.632812 L 135.128906 205.214844 Z M 159.230469 204.125 L 162.167969 203.992188 L 162.492188 203.367188 L 154.273438 203.738281 L 153.953125 204.363281 L 158.523438 204.152344 L 159.382812 205.503906 L 159.707031 204.878906 Z M 173.554688 203.476562 L 174.667969 203.425781 L 174.988281 202.800781 L 166.773438 203.171875 L 166.449219 203.796875 L 171.023438 203.585938 L 171.882812 204.9375 L 172.617188 203.519531 Z M 186.199219 202.910156 L 187.167969 202.867188 L 187.492188 202.242188 L 179.273438 202.613281 L 178.953125 203.238281 L 183.523438 203.027344 L 184.382812 204.378906 L 185.117188 202.957031 Z M 259.222656 199.613281 L 262.144531 199.484375 L 262.472656 198.863281 L 254.269531 199.234375 L 253.945312 199.855469 L 258.070312 199.675781 L 258.519531 199.65625 L 259.378906 201.003906 L 259.703125 200.378906 Z M 260.625 163.007812 L 259.925781 163.035156 L 259.601562 163.660156 L 260.300781 163.632812 C 260.394531 163.449219 260.507812 163.234375 260.625 163.007812 Z M 123.242188 180.992188 L 123.558594 180.394531 L 118.433594 172.367188 L 118.117188 172.972656 Z M 128.214844 195.839844 L 127.878906 196.445312 L 133.046875 204.527344 L 133.371094 203.902344 Z M 134.675781 203.066406 L 149.914062 202.378906 L 144.78125 194.351562 L 129.546875 195.039062 Z M 152.570312 203.65625 L 152.894531 203.027344 L 146.707031 193.34375 L 146.378906 193.972656 Z M 165.074219 203.082031 L 165.398438 202.457031 L 159.207031 192.773438 L 158.882812 193.398438 Z M 177.574219 202.523438 L 177.898438 201.898438 L 171.707031 192.214844 L 171.382812 192.835938 Z M 190.074219 201.957031 L 190.394531 201.332031 L 184.207031 191.648438 L 183.882812 192.269531 Z M 202.566406 201.386719 L 202.890625 200.761719 L 196.703125 191.085938 L 196.378906 191.707031 Z M 215.074219 200.832031 L 215.394531 200.207031 L 209.207031 190.519531 L 208.882812 191.144531 Z M 227.570312 200.265625 L 227.894531 199.640625 L 221.703125 189.953125 L 221.382812 190.578125 Z M 240.070312 199.699219 L 240.394531 199.074219 L 234.203125 189.386719 L 233.878906 190.011719 Z M 252.570312 199.136719 L 252.894531 198.515625 L 247.765625 190.488281 L 247.445312 191.113281 Z M 259.203125 188.261719 L 258.878906 188.886719 L 258.972656 189.035156 L 259.296875 188.410156 Z M 249.851562 187.445312 L 249.527344 188.070312 L 257.742188 187.699219 L 258.066406 187.074219 Z M 256.5 175.78125 L 257.824219 175.722656 L 258.148438 175.101562 L 249.933594 175.472656 C 249.839844 175.652344 249.726562 175.867188 249.609375 176.09375 L 253.691406 175.914062 L 254.550781 177.261719 L 255.289062 175.84375 Z M 252.945312 165.523438 L 244.730469 165.894531 L 249.863281 173.917969 L 258.082031 173.546875 Z M 243.421875 166.730469 L 243.101562 167.351562 L 248.230469 175.382812 C 248.328125 175.195312 248.433594 174.988281 248.554688 174.757812 Z M 232.234375 166.457031 L 237.363281 174.480469 L 245.578125 174.109375 L 240.445312 166.082031 Z M 219.734375 167.015625 L 224.859375 175.039062 L 233.078125 174.667969 L 227.949219 166.644531 Z M 207.234375 167.582031 L 212.367188 175.609375 L 220.582031 175.238281 L 215.457031 167.210938 Z M 194.734375 168.148438 L 199.867188 176.175781 L 208.082031 175.804688 L 202.953125 167.777344 Z M 182.234375 168.707031 L 187.367188 176.734375 L 195.582031 176.363281 L 190.453125 168.335938 Z M 169.738281 169.273438 L 174.867188 177.300781 L 183.085938 176.929688 L 177.953125 168.902344 Z M 157.238281 169.839844 L 162.363281 177.867188 L 170.582031 177.492188 L 165.453125 169.46875 Z M 144.738281 170.398438 L 149.867188 178.425781 L 158.082031 178.058594 L 152.957031 170.035156 Z M 132.238281 170.964844 L 137.367188 178.992188 L 145.582031 178.621094 L 140.453125 170.59375 Z M 119.738281 171.53125 L 124.867188 179.558594 L 133.082031 179.1875 L 127.949219 171.15625 Z M 135.734375 180.449219 L 136.058594 179.828125 L 130.929688 171.800781 L 130.609375 172.425781 Z M 145.246094 192.78125 L 145.570312 192.15625 L 137.351562 192.527344 L 137.027344 193.152344 Z M 248.144531 175.550781 L 247.4375 175.585938 L 247.117188 176.210938 L 247.832031 176.175781 C 247.914062 176.003906 248.015625 175.796875 248.144531 175.550781 Z M 137.117188 181.167969 L 141.199219 180.984375 L 142.039062 182.300781 L 142.8125 180.914062 L 144.042969 180.859375 L 145.335938 180.800781 L 145.65625 180.179688 L 137.441406 180.550781 L 137.121094 181.167969 Z M 148.152344 191.867188 L 148.476562 191.242188 L 143.324219 183.179688 L 142.984375 183.785156 Z M 160.652344 191.304688 L 160.976562 190.683594 L 155.839844 182.644531 L 155.511719 183.261719 Z M 173.152344 190.738281 L 173.476562 190.117188 L 168.347656 182.089844 L 168.027344 182.714844 Z M 185.648438 190.179688 L 185.972656 189.554688 L 180.839844 181.527344 L 180.515625 182.148438 Z M 198.152344 189.613281 L 198.476562 188.988281 L 193.347656 180.964844 L 193.023438 181.589844 Z M 210.644531 189.046875 C 210.765625 188.820312 210.875 188.601562 210.96875 188.421875 L 205.839844 180.398438 L 205.515625 181.023438 Z M 223.148438 188.484375 L 223.472656 187.863281 L 218.339844 179.832031 L 218.015625 180.457031 Z M 235.652344 187.921875 L 235.972656 187.296875 L 230.847656 179.273438 L 230.523438 179.894531 Z M 240.367188 178.0625 L 232.152344 178.429688 L 237.277344 186.457031 L 245.496094 186.085938 Z M 227.867188 178.628906 L 219.652344 179 L 224.777344 187.027344 L 232.992188 186.65625 Z M 215.367188 179.1875 L 207.148438 179.558594 L 212.28125 187.589844 L 220.496094 187.21875 Z M 202.867188 179.753906 L 198.621094 179.945312 C 198.507812 179.992188 198.382812 180 198.226562 179.964844 L 194.660156 180.125 L 199.785156 188.148438 L 208 187.785156 Z M 190.367188 180.320312 L 182.152344 180.691406 L 187.285156 188.722656 L 195.5 188.351562 Z M 177.867188 180.882812 L 169.65625 181.253906 L 174.785156 189.28125 L 183 188.910156 Z M 165.367188 181.449219 L 157.152344 181.820312 L 162.28125 189.84375 L 170.496094 189.472656 Z M 152.871094 182.015625 L 144.65625 182.386719 L 149.785156 190.414062 L 158 190.042969 Z M 147.121094 180.714844 L 147.824219 180.6875 L 148.148438 180.0625 L 147.445312 180.089844 Z M 149.613281 180.601562 L 153.699219 180.417969 L 154.554688 181.753906 L 155.300781 180.347656 L 156.765625 180.28125 L 157.828125 180.234375 L 158.152344 179.609375 L 149.9375 179.980469 Z M 159.617188 180.152344 L 160.320312 180.125 L 160.644531 179.5 L 159.941406 179.53125 Z M 162.117188 180.042969 L 166.199219 179.859375 L 167.058594 181.210938 L 167.792969 179.789062 L 169.085938 179.734375 L 170.328125 179.675781 L 170.65625 179.046875 L 162.441406 179.417969 Z M 172.121094 179.589844 L 172.824219 179.558594 L 173.144531 178.9375 L 172.445312 178.964844 Z M 174.613281 179.476562 L 178.695312 179.292969 L 179.558594 180.644531 L 180.292969 179.222656 L 181.773438 179.160156 L 182.824219 179.113281 L 183.148438 178.488281 L 174.933594 178.859375 Z M 184.621094 179.023438 L 185.425781 178.988281 L 185.710938 178.367188 L 184.941406 178.402344 Z M 187.171875 178.910156 L 191.195312 178.726562 L 192.054688 180.078125 L 192.792969 178.65625 L 194.089844 178.597656 L 195.34375 178.539062 L 195.664062 177.917969 L 187.457031 178.289062 Z M 197.128906 178.457031 L 197.863281 178.425781 C 197.949219 178.257812 198.054688 178.042969 198.175781 177.800781 L 197.445312 177.835938 Z M 199.640625 178.34375 L 203.695312 178.160156 L 204.554688 179.511719 L 205.289062 178.089844 L 206.539062 178.035156 L 207.824219 177.980469 L 208.148438 177.355469 L 199.945312 177.722656 C 199.859375 177.902344 199.75 178.121094 199.640625 178.34375 Z M 209.621094 177.898438 L 210.320312 177.867188 L 210.644531 177.246094 L 209.941406 177.273438 Z M 212.433594 177.164062 L 212.109375 177.789062 L 216.191406 177.605469 L 217.054688 178.957031 L 217.789062 177.535156 L 219.128906 177.476562 L 220.324219 177.421875 L 220.648438 176.796875 Z M 222.117188 177.332031 L 222.820312 177.300781 L 223.144531 176.679688 L 222.441406 176.707031 Z M 224.613281 177.214844 L 228.695312 177.035156 L 229.554688 178.382812 L 230.289062 176.964844 L 231.332031 176.921875 L 232.824219 176.855469 L 233.144531 176.230469 L 224.929688 176.601562 Z M 234.613281 176.769531 L 235.316406 176.738281 L 235.640625 176.117188 L 234.9375 176.144531 Z M 237.109375 176.65625 L 241.191406 176.472656 L 242.050781 177.824219 L 242.785156 176.402344 L 244.042969 176.34375 L 245.320312 176.289062 L 245.644531 175.664062 L 237.429688 176.035156 Z M 243.34375 178.710938 L 243.019531 179.335938 L 248.148438 187.359375 L 248.46875 186.734375 Z M 248.058594 187.53125 L 247.355469 187.558594 L 247.03125 188.183594 L 247.734375 188.15625 Z M 246.699219 188.828125 L 246.375 189.449219 L 246.46875 189.597656 L 246.792969 188.972656 Z M 245.566406 187.640625 L 237.351562 188.011719 L 237.027344 188.636719 L 245.242188 188.265625 Z M 235.5625 188.09375 L 234.859375 188.121094 L 234.535156 188.746094 L 235.238281 188.714844 Z M 233.0625 188.203125 L 224.847656 188.578125 L 224.523438 189.199219 L 232.742188 188.828125 Z M 223.058594 188.65625 L 222.355469 188.6875 L 222.035156 189.308594 L 222.734375 189.28125 Z M 220.566406 188.769531 L 212.347656 189.144531 C 212.261719 189.3125 212.148438 189.53125 212.027344 189.765625 L 220.242188 189.394531 Z M 210.554688 189.222656 L 209.859375 189.253906 L 209.535156 189.875 L 210.234375 189.847656 C 210.332031 189.664062 210.445312 189.445312 210.554688 189.222656 Z M 208.070312 189.332031 L 199.851562 189.703125 L 199.53125 190.328125 L 207.746094 189.957031 Z M 198.0625 189.785156 L 197.363281 189.8125 L 197.039062 190.4375 L 197.738281 190.410156 Z M 195.570312 189.898438 L 187.355469 190.269531 L 187.03125 190.894531 L 195.246094 190.523438 Z M 185.558594 190.347656 L 184.859375 190.378906 L 184.535156 191.003906 L 185.238281 190.972656 Z M 183.066406 190.464844 L 174.851562 190.835938 L 174.527344 191.457031 L 182.742188 191.085938 Z M 173.0625 190.914062 L 172.359375 190.945312 L 172.035156 191.570312 L 172.738281 191.539062 Z M 170.570312 191.023438 L 162.355469 191.398438 L 162.03125 192.019531 L 170.246094 191.648438 Z M 160.566406 191.476562 L 159.863281 191.507812 L 159.539062 192.128906 L 160.242188 192.101562 Z M 158.070312 191.589844 L 149.855469 191.964844 L 149.53125 192.585938 L 157.75 192.214844 Z M 148.0625 192.042969 L 147.359375 192.070312 L 147.035156 192.695312 L 147.738281 192.664062 Z M 137.285156 190.972656 L 145.5 190.601562 L 140.371094 182.574219 L 132.15625 182.945312 Z M 135.320312 181.246094 L 135.644531 180.621094 L 134.949219 180.652344 L 134.632812 181.273438 Z M 148.234375 179.890625 L 148.558594 179.265625 L 143.433594 171.242188 L 143.109375 171.867188 Z M 155.929688 170.675781 L 155.605469 171.300781 L 160.734375 179.324219 L 161.058594 178.699219 Z M 168.421875 170.105469 L 168.09375 170.71875 L 173.234375 178.757812 L 173.554688 178.132812 Z M 185.769531 178.246094 L 186.070312 177.59375 L 180.929688 169.550781 L 180.605469 170.171875 Z M 193.429688 168.984375 L 193.105469 169.605469 L 198.25 177.660156 C 198.347656 177.457031 198.453125 177.238281 198.558594 177.023438 Z M 205.953125 168.457031 L 205.644531 169.101562 L 210.734375 177.070312 L 211.058594 176.445312 Z M 218.425781 167.855469 L 218.101562 168.480469 L 223.226562 176.503906 L 223.550781 175.878906 Z M 230.925781 167.289062 L 230.605469 167.914062 L 235.730469 175.941406 L 236.054688 175.316406 Z M 252.863281 177.496094 L 244.648438 177.867188 L 249.773438 185.894531 L 257.992188 185.523438 Z M 257.285156 189.28125 L 249.070312 189.652344 L 254.195312 197.675781 L 262.414062 197.304688 Z M 244.785156 189.847656 L 236.570312 190.21875 L 241.699219 198.242188 L 249.914062 197.871094 Z M 232.285156 190.40625 L 224.070312 190.777344 L 229.203125 198.804688 L 237.417969 198.433594 Z M 219.789062 190.972656 L 211.570312 191.34375 L 216.699219 199.367188 L 224.914062 198.996094 Z M 207.289062 191.539062 L 199.074219 191.910156 L 204.199219 199.933594 L 212.414062 199.5625 Z M 194.789062 192.097656 L 186.570312 192.46875 L 191.703125 200.496094 L 199.917969 200.125 Z M 182.289062 192.664062 L 174.074219 193.035156 L 179.203125 201.0625 L 187.421875 200.691406 Z M 169.789062 193.230469 L 161.574219 193.601562 L 166.707031 201.628906 L 174.921875 201.257812 Z M 157.289062 193.789062 L 149.074219 194.160156 L 154.207031 202.1875 L 162.421875 201.816406 Z M 135.238281 193.230469 L 135.5625 192.609375 L 134.867188 192.640625 L 134.542969 193.261719 Z M 135.65625 192.433594 L 135.976562 191.808594 L 130.84375 183.773438 L 130.519531 184.386719 Z M 129.558594 182.878906 L 130.300781 181.472656 L 131.488281 181.421875 L 132.851562 181.359375 L 133.167969 180.738281 L 124.941406 181.109375 L 124.613281 181.730469 L 128.714844 181.546875 Z M 122.8125 181.8125 L 123.140625 181.191406 L 122.453125 181.222656 L 122.113281 181.847656 Z M 122.71875 169.839844 L 123.070312 169.214844 L 122.429688 169.242188 L 122.105469 169.867188 Z M 124.90625 169.132812 L 124.554688 169.757812 L 128.78125 169.570312 L 129.640625 170.921875 L 130.375 169.5 L 131.921875 169.429688 L 132.816406 169.386719 L 133.140625 168.765625 Z M 134.609375 169.304688 L 135.308594 169.273438 L 135.632812 168.648438 L 134.929688 168.679688 Z M 137.101562 169.1875 L 141.277344 168.996094 L 142.136719 170.347656 L 142.871094 168.929688 L 144.417969 168.855469 L 145.3125 168.816406 C 145.40625 168.636719 145.519531 168.417969 145.636719 168.191406 L 137.421875 168.5625 L 137.097656 169.1875 Z M 147.429688 168.117188 C 147.335938 168.296875 147.222656 168.515625 147.105469 168.742188 L 147.804688 168.710938 L 148.128906 168.089844 Z M 149.601562 168.628906 L 153.777344 168.4375 L 154.636719 169.789062 L 155.375 168.367188 L 156.832031 168.304688 L 157.8125 168.261719 L 158.132812 167.636719 L 149.917969 168.007812 L 149.597656 168.628906 Z M 159.609375 168.175781 L 160.308594 168.148438 L 160.632812 167.523438 L 159.929688 167.554688 Z M 162.101562 168.0625 L 166.277344 167.871094 L 167.132812 169.214844 L 167.878906 167.800781 L 169.339844 167.734375 L 170.316406 167.691406 L 170.640625 167.066406 L 162.425781 167.4375 Z M 172.105469 167.609375 L 172.808594 167.582031 L 173.132812 166.957031 L 172.429688 166.988281 Z M 174.597656 167.496094 L 178.773438 167.304688 L 179.636719 168.65625 L 180.371094 167.234375 L 182.003906 167.164062 L 182.808594 167.128906 L 183.132812 166.503906 L 174.914062 166.875 L 174.59375 167.496094 Z M 184.601562 167.050781 L 185.304688 167.019531 L 185.628906 166.394531 L 184.925781 166.425781 Z M 187.101562 166.9375 L 191.277344 166.746094 L 192.136719 168.09375 L 192.871094 166.675781 L 194.3125 166.613281 L 195.308594 166.566406 L 195.632812 165.945312 L 187.417969 166.316406 L 187.09375 166.933594 Z M 197.105469 166.484375 L 197.808594 166.457031 L 198.128906 165.832031 L 197.429688 165.863281 Z M 199.597656 166.371094 L 203.773438 166.179688 L 204.65625 167.5625 L 205.457031 165.910156 L 206.730469 166.046875 L 207.785156 165.996094 L 208.117188 165.375 L 199.917969 165.746094 L 199.59375 166.367188 Z M 209.921875 165.296875 L 209.59375 165.917969 L 210.308594 165.886719 L 210.632812 165.261719 Z M 212.097656 165.804688 L 216.273438 165.613281 L 217.132812 166.960938 L 217.871094 165.542969 L 219.058594 165.492188 L 220.304688 165.433594 L 220.628906 164.8125 L 212.414062 165.183594 L 212.09375 165.800781 Z M 222.101562 165.355469 L 222.800781 165.328125 L 223.125 164.703125 L 222.425781 164.734375 Z M 224.597656 165.246094 L 228.773438 165.054688 L 229.632812 166.402344 L 230.371094 164.984375 L 231.675781 164.921875 L 232.808594 164.871094 L 233.132812 164.246094 L 224.917969 164.617188 L 224.59375 165.242188 Z M 234.605469 164.792969 L 235.304688 164.765625 L 235.628906 164.140625 L 234.925781 164.167969 Z M 237.097656 164.679688 L 241.273438 164.488281 L 242.132812 165.835938 L 242.640625 164.855469 C 242.921875 164.226562 243.722656 164.296875 244.195312 164.355469 L 245.308594 164.304688 L 245.632812 163.679688 L 237.417969 164.050781 L 237.09375 164.675781 Z M 247.425781 163.601562 L 247.101562 164.226562 L 247.804688 164.199219 L 248.128906 163.574219 Z M 249.597656 164.113281 L 253.773438 163.921875 L 254.632812 165.269531 L 255.367188 163.851562 L 256.53125 163.796875 L 257.804688 163.742188 L 258.128906 163.121094 L 249.914062 163.492188 L 249.589844 164.109375 Z M 255.921875 166.164062 L 255.597656 166.785156 L 260.726562 174.8125 L 261.050781 174.1875 Z M 260.316406 175.609375 L 260.640625 174.984375 L 259.941406 175.015625 L 259.617188 175.636719 Z M 255.84375 178.144531 L 255.519531 178.769531 L 260.648438 186.796875 L 260.972656 186.171875 Z M 260.558594 186.964844 L 259.855469 186.992188 L 259.53125 187.617188 L 260.234375 187.589844 Z M 260.261719 189.917969 L 259.9375 190.542969 L 265.066406 198.570312 L 265.386719 197.945312 Z M 264.976562 198.746094 L 264.273438 198.78125 L 263.945312 199.402344 L 264.65625 199.371094 Z M 252.480469 199.308594 L 251.78125 199.339844 L 251.457031 199.960938 L 252.160156 199.933594 Z M 249.984375 199.421875 L 241.769531 199.792969 L 241.445312 200.417969 L 249.660156 200.046875 Z M 239.980469 199.875 L 239.277344 199.902344 L 238.953125 200.527344 L 239.65625 200.496094 Z M 237.484375 199.988281 L 229.269531 200.359375 L 228.945312 200.984375 L 237.160156 200.613281 Z M 227.480469 200.441406 L 226.777344 200.46875 L 226.453125 201.09375 L 227.15625 201.0625 Z M 224.988281 200.550781 L 216.773438 200.921875 L 216.449219 201.542969 L 224.664062 201.171875 Z M 214.984375 201 L 214.28125 201.03125 L 213.957031 201.65625 L 214.660156 201.625 Z M 212.484375 201.113281 L 204.265625 201.484375 L 203.941406 202.105469 L 212.164062 201.738281 Z M 202.472656 201.566406 L 201.78125 201.601562 L 201.457031 202.226562 L 202.148438 202.191406 Z M 199.988281 201.679688 L 191.769531 202.050781 L 191.449219 202.675781 L 199.664062 202.304688 Z M 189.980469 202.132812 L 189.28125 202.160156 L 188.957031 202.785156 L 189.65625 202.753906 Z M 177.484375 202.695312 L 176.785156 202.722656 L 176.460938 203.347656 L 177.160156 203.316406 Z M 164.980469 203.257812 L 164.28125 203.285156 L 163.957031 203.910156 L 164.660156 203.882812 Z M 152.484375 203.820312 L 151.777344 203.851562 L 151.453125 204.476562 L 152.164062 204.441406 Z M 132.953125 204.703125 L 132.273438 204.738281 C 132.167969 204.96875 132.066406 205.175781 131.976562 205.355469 L 132.632812 205.328125 Z M 130.8125 205.410156 L 130.835938 205.257812 C 130.570312 205.21875 130.351562 205.324219 130.21875 205.433594 Z M 122.179688 203.632812 L 130.394531 203.261719 L 125.261719 195.234375 L 117.046875 195.605469 Z M 114.738281 191.992188 L 133.007812 191.171875 L 127.886719 183.140625 L 109.613281 183.96875 Z M 107.296875 180.347656 L 120.601562 179.75 L 115.476562 171.726562 L 102.167969 172.324219 Z M 130.914062 159.828125 L 130.589844 160.449219 L 135.722656 168.480469 L 136.046875 167.855469 Z M 143.417969 159.261719 L 143.09375 159.886719 L 148.226562 167.914062 L 148.546875 167.292969 Z M 155.914062 158.695312 L 155.59375 159.320312 L 160.722656 167.347656 L 161.046875 166.726562 Z M 168.410156 158.136719 L 168.089844 158.757812 L 173.21875 166.789062 L 173.542969 166.164062 Z M 180.925781 157.585938 L 180.609375 158.222656 L 185.722656 166.222656 L 186.046875 165.597656 Z M 193.410156 157.007812 L 193.085938 157.632812 L 198.214844 165.660156 L 198.539062 165.035156 Z M 205.90625 156.4375 L 205.582031 157.050781 L 210.71875 165.089844 L 211.042969 164.464844 Z M 230.910156 155.316406 L 230.585938 155.941406 L 235.714844 163.964844 L 236.035156 163.34375 Z M 243.40625 154.742188 C 243.289062 154.96875 243.167969 155.191406 243.082031 155.359375 L 248.21875 163.398438 L 248.542969 162.773438 Z M 255.910156 154.1875 L 255.589844 154.8125 L 260.71875 162.839844 C 260.835938 162.613281 260.949219 162.394531 261.042969 162.214844 Z M 265.445312 164.957031 L 257.230469 165.328125 L 262.359375 173.355469 L 270.578125 172.984375 Z M 265.363281 176.9375 L 257.148438 177.308594 L 262.28125 185.335938 L 270.496094 184.964844 Z M 269.785156 188.714844 L 261.570312 189.085938 L 266.695312 197.109375 L 274.910156 196.738281 Z M 274.363281 200.484375 L 261.980469 201.046875 L 267.105469 209.070312 L 279.492188 208.511719 Z M 257.691406 201.238281 L 186.984375 204.429688 L 192.113281 212.457031 L 262.828125 209.261719 Z M 182.695312 204.621094 L 174.480469 204.992188 L 179.613281 213.015625 L 187.828125 212.644531 Z M 170.199219 205.183594 L 161.984375 205.554688 L 167.113281 213.582031 L 175.332031 213.210938 Z M 157.699219 205.75 L 149.484375 206.121094 L 154.617188 214.148438 L 162.832031 213.777344 Z M 145.203125 206.316406 L 136.984375 206.6875 L 142.117188 214.714844 L 150.332031 214.34375 Z M 132.703125 206.875 L 124.484375 207.246094 L 129.613281 215.273438 L 137.828125 214.902344 Z M 120.136719 205.886719 L 120.457031 205.265625 L 119.757812 205.292969 L 119.433594 205.917969 Z M 120.546875 205.09375 L 120.871094 204.46875 L 115.738281 196.441406 L 115.414062 197.066406 Z M 112.691406 194.246094 L 113.015625 193.621094 L 112.3125 193.648438 L 111.988281 194.273438 Z M 113.105469 193.449219 L 113.425781 192.824219 L 108.269531 184.753906 L 107.929688 185.351562 Z M 105.25 182.609375 L 105.574219 181.984375 L 104.871094 182.011719 L 104.546875 182.636719 Z M 105.664062 181.808594 L 105.988281 181.183594 L 100.855469 173.15625 L 100.53125 173.78125 Z M 97.8125 170.964844 L 98.132812 170.34375 L 97.433594 170.371094 L 97.109375 170.996094 Z M 98.226562 170.167969 L 98.550781 169.542969 L 93.421875 161.515625 L 93.097656 162.140625 Z M 90.441406 160.875 L 82.226562 161.246094 L 87.351562 169.273438 L 95.570312 168.898438 Z M 89.671875 159.355469 L 90.371094 159.324219 L 90.695312 158.699219 L 89.996094 158.730469 Z M 94.730469 160.683594 L 99.855469 168.707031 L 120.570312 167.773438 L 115.441406 159.75 Z M 115.371094 158.191406 L 115.691406 157.574219 L 114.988281 157.601562 L 114.664062 158.226562 Z M 116.75 158.910156 L 117.132812 159.5 L 117.867188 158.082031 L 119.210938 158.019531 L 125.378906 157.742188 L 125.703125 157.117188 L 117.488281 157.488281 Z M 127.167969 157.660156 L 127.871094 157.632812 L 128.195312 157.007812 L 127.492188 157.039062 Z M 129.246094 158.347656 L 129.628906 158.9375 L 130.363281 157.519531 L 131.804688 157.453125 L 137.875 157.179688 L 138.199219 156.558594 L 129.984375 156.929688 Z M 139.664062 157.101562 L 140.367188 157.070312 L 140.691406 156.445312 L 139.988281 156.476562 Z M 141.746094 157.78125 L 142.125 158.371094 L 142.863281 156.953125 L 144.0625 156.898438 L 150.375 156.613281 L 150.699219 155.992188 L 142.480469 156.363281 Z M 152.164062 156.535156 L 152.863281 156.503906 L 153.1875 155.878906 L 152.488281 155.910156 Z M 154.246094 157.222656 L 154.628906 157.8125 L 155.363281 156.394531 L 156.492188 156.339844 L 162.878906 156.050781 L 163.203125 155.425781 L 154.984375 155.796875 Z M 164.667969 155.96875 L 165.367188 155.941406 L 165.691406 155.316406 L 164.992188 155.347656 Z M 166.746094 156.65625 L 167.125 157.246094 L 167.863281 155.828125 L 169.121094 155.769531 L 175.375 155.488281 L 175.699219 154.863281 L 167.480469 155.234375 Z M 177.164062 155.40625 L 177.863281 155.378906 L 178.1875 154.753906 L 177.488281 154.785156 Z M 179.246094 156.089844 L 179.632812 156.695312 L 180.351562 155.261719 L 181.601562 155.207031 L 187.867188 154.925781 L 188.1875 154.300781 L 179.972656 154.671875 L 179.238281 156.085938 Z M 189.660156 154.839844 L 190.363281 154.8125 L 190.6875 154.1875 L 189.984375 154.21875 Z M 191.746094 155.527344 L 192.125 156.121094 L 192.859375 154.699219 L 193.859375 154.65625 L 200.386719 154.359375 L 200.703125 153.738281 L 192.484375 154.105469 Z M 202.171875 154.28125 L 202.867188 154.25 L 203.191406 153.625 L 202.492188 153.65625 Z M 204.242188 154.960938 L 204.621094 155.550781 L 205.363281 154.136719 L 206.421875 154.089844 L 212.875 153.804688 L 213.199219 153.179688 L 204.980469 153.550781 L 204.25 154.964844 Z M 214.660156 153.714844 L 215.390625 153.683594 C 215.511719 153.46875 215.632812 153.257812 215.742188 153.054688 L 214.984375 153.09375 Z M 216.757812 154.421875 L 217.121094 154.992188 L 217.855469 153.574219 L 219.050781 153.519531 L 225.371094 153.230469 L 225.695312 152.605469 L 217.558594 152.972656 C 217.382812 153.34375 217.117188 153.808594 216.757812 154.421875 Z M 227.484375 152.527344 L 227.160156 153.148438 L 227.863281 153.121094 L 228.183594 152.496094 Z M 229.242188 153.835938 L 229.625 154.425781 L 230.359375 153.007812 L 231.421875 152.960938 L 237.867188 152.667969 L 238.191406 152.042969 L 229.976562 152.414062 L 229.238281 153.835938 Z M 239.664062 152.585938 L 240.363281 152.554688 L 240.6875 151.933594 L 239.988281 151.960938 Z M 241.742188 153.269531 L 242.117188 153.859375 C 242.375 153.375 242.617188 152.902344 242.648438 152.84375 L 242.855469 152.445312 L 243.839844 152.402344 L 250.367188 152.109375 L 250.691406 151.484375 L 242.476562 151.855469 Z M 252.160156 152.023438 L 252.859375 151.996094 L 253.183594 151.371094 L 252.484375 151.398438 Z M 254.242188 152.703125 L 254.621094 153.292969 L 255.355469 151.875 L 256.382812 151.832031 L 263.042969 151.527344 L 263.367188 150.90625 L 254.980469 151.28125 Z M 264.839844 151.449219 L 265.367188 151.425781 L 265.6875 150.804688 L 265.160156 150.832031 Z M 265.429688 152.976562 L 257.214844 153.347656 L 262.339844 161.375 L 270.558594 161.003906 Z M 268.40625 153.625 L 268.085938 154.25 L 273.214844 162.277344 C 273.332031 162.050781 273.445312 161.832031 273.539062 161.652344 Z M 272.804688 163.070312 C 272.894531 162.894531 273.011719 162.675781 273.128906 162.449219 L 272.425781 162.476562 L 272.101562 163.101562 Z M 268.425781 165.597656 L 268.101562 166.222656 L 273.230469 174.25 L 273.550781 173.625 Z M 273.140625 174.417969 L 272.4375 174.453125 L 272.113281 175.078125 L 272.816406 175.042969 Z M 268.339844 177.578125 L 268.015625 178.203125 L 273.148438 186.230469 L 273.472656 185.605469 Z M 273.058594 186.402344 L 272.359375 186.429688 C 272.269531 186.605469 272.15625 186.824219 272.035156 187.054688 L 272.738281 187.023438 Z M 272.765625 189.355469 L 272.4375 189.984375 L 277.566406 198.011719 L 277.890625 197.386719 Z M 277.480469 198.183594 L 276.777344 198.21875 L 276.453125 198.839844 L 277.15625 198.808594 Z M 277.34375 201.128906 L 277.019531 201.75 L 282.148438 209.777344 L 282.472656 209.152344 Z M 283.785156 208.320312 L 296.160156 207.761719 L 291.03125 199.738281 L 278.652344 200.292969 Z M 282.058594 209.953125 L 281.347656 209.984375 L 277.28125 217.644531 L 278.085938 217.609375 Z M 275.484375 217.726562 L 279.550781 210.066406 L 267.179688 210.625 L 263.210938 218.28125 Z M 265.386719 210.703125 L 264.6875 210.730469 C 264.003906 212.046875 261.800781 216.289062 260.714844 218.386719 L 261.414062 218.359375 Z M 262.894531 210.816406 L 192.183594 214.007812 L 188.210938 221.664062 L 258.921875 218.472656 C 259.605469 217.15625 261.804688 212.914062 262.894531 210.816406 Z M 190.390625 214.085938 L 189.691406 214.113281 L 185.71875 221.773438 L 186.417969 221.742188 Z M 187.898438 214.199219 L 179.679688 214.570312 L 175.710938 222.230469 L 183.925781 221.859375 Z M 177.890625 214.652344 L 177.191406 214.679688 L 173.21875 222.339844 L 173.921875 222.308594 Z M 175.398438 214.765625 L 167.183594 215.136719 L 163.210938 222.796875 L 171.425781 222.425781 Z M 165.394531 215.214844 L 164.695312 215.242188 L 160.722656 222.902344 L 161.421875 222.871094 Z M 162.902344 215.328125 L 154.6875 215.699219 L 150.714844 223.359375 L 158.929688 222.984375 Z M 152.898438 215.78125 L 152.195312 215.808594 L 148.222656 223.46875 L 148.925781 223.4375 Z M 150.398438 215.890625 L 142.183594 216.265625 C 141.5 217.582031 139.300781 221.824219 138.210938 223.921875 L 146.425781 223.550781 Z M 140.394531 216.34375 L 139.695312 216.375 C 139.308594 217.136719 138.421875 218.871094 137.527344 220.605469 C 136.933594 221.761719 136.332031 222.921875 135.878906 223.792969 C 135.835938 223.878906 135.792969 223.957031 135.753906 224.035156 L 136.425781 224.007812 C 137.105469 222.683594 139.308594 218.4375 140.394531 216.34375 Z M 133.953125 224.113281 C 134.550781 223.007812 136.402344 219.402344 137.914062 216.453125 L 129.691406 216.828125 L 125.71875 224.484375 Z M 127.898438 216.90625 L 127.195312 216.933594 L 123.222656 224.59375 L 123.925781 224.5625 Z M 125.402344 217.019531 L 117.1875 217.390625 L 113.214844 225.050781 L 121.433594 224.679688 Z M 115.8125 216.675781 L 110.679688 208.648438 L 106.707031 216.308594 L 111.839844 224.335938 Z M 111.457031 206.285156 L 117.640625 206.003906 L 117.964844 205.378906 L 109.75 205.75 L 105.363281 214.203125 L 105.746094 214.792969 L 110.128906 206.339844 Z M 108.367188 205.035156 L 103.242188 197.007812 L 99.269531 204.664062 L 104.394531 212.691406 Z M 103.761719 194.648438 C 103.761719 194.648438 103.765625 194.652344 103.761719 194.648438 L 110.199219 194.359375 L 110.523438 193.734375 L 102.304688 194.105469 L 97.921875 202.558594 L 98.300781 203.148438 L 102.6875 194.695312 Z M 100.929688 193.390625 L 95.800781 185.371094 C 95.203125 186.523438 94.050781 188.738281 91.824219 193.027344 L 96.949219 201.050781 L 100.925781 193.390625 Z M 90.859375 191.511719 C 92.664062 188.050781 94.90625 183.722656 95.003906 183.523438 L 95.191406 183.058594 L 96.519531 182.996094 L 102.761719 182.710938 L 103.085938 182.089844 L 94.867188 182.460938 L 90.484375 190.914062 Z M 93.488281 181.75 L 88.359375 173.722656 L 84.386719 181.378906 L 89.515625 189.410156 Z M 89.472656 171.339844 L 95.316406 171.074219 L 95.640625 170.449219 L 87.421875 170.820312 L 83.039062 179.273438 L 83.417969 179.863281 L 87.804688 171.410156 Z M 86.050781 170.109375 L 80.917969 162.082031 L 76.945312 169.738281 L 82.078125 177.765625 Z M 79.953125 160.570312 L 79.574219 159.980469 L 75.601562 167.640625 L 75.980469 168.230469 Z M 78.605469 158.464844 L 73.480469 150.441406 L 69.507812 158.097656 L 74.632812 166.125 Z M 74.785156 149.605469 L 79.917969 157.632812 L 88.132812 157.261719 L 83.007812 149.234375 Z M 90.785156 158.53125 L 91.109375 157.90625 L 85.976562 149.878906 L 85.652344 150.5 Z M 87.285156 149.039062 L 92.417969 157.066406 L 100.632812 156.695312 L 95.5 148.667969 Z M 103.390625 158.128906 L 102.496094 158.171875 L 102.171875 158.792969 L 112.878906 158.3125 L 113.203125 157.691406 L 104.089844 158.101562 L 98.476562 149.320312 L 98.152344 149.941406 Z M 99.785156 148.480469 L 104.917969 156.507812 L 113.132812 156.136719 L 108.003906 148.105469 Z M 115.78125 157.398438 L 116.105469 156.773438 L 110.972656 148.746094 L 110.648438 149.367188 Z M 112.285156 147.914062 L 117.417969 155.941406 L 125.632812 155.570312 L 120.5 147.539062 Z M 128.28125 156.835938 L 128.605469 156.214844 L 123.472656 148.1875 L 123.152344 148.808594 Z M 124.785156 147.347656 L 129.914062 155.375 L 138.132812 155.003906 L 133 146.972656 Z M 140.78125 156.269531 L 141.105469 155.648438 L 135.972656 147.621094 L 135.648438 148.242188 Z M 137.285156 146.785156 L 142.417969 154.816406 L 150.632812 154.441406 L 145.5 146.414062 Z M 153.28125 155.703125 L 153.601562 155.082031 L 148.472656 147.054688 L 148.148438 147.675781 Z M 149.785156 146.21875 L 154.910156 154.246094 L 163.125 153.875 L 158 145.847656 Z M 165.78125 155.144531 L 166.105469 154.523438 L 160.976562 146.496094 L 160.652344 147.121094 Z M 162.28125 145.652344 L 167.414062 153.683594 L 175.628906 153.308594 L 170.503906 145.285156 Z M 178.28125 154.578125 L 178.601562 153.957031 L 173.476562 145.929688 L 173.152344 146.554688 Z M 174.785156 145.09375 L 179.910156 153.121094 L 188.125 152.75 L 183 144.722656 Z M 190.777344 154.011719 L 191.101562 153.390625 L 185.96875 145.359375 L 185.648438 145.984375 Z M 187.28125 144.527344 L 192.414062 152.554688 L 200.628906 152.183594 L 195.496094 144.15625 Z M 203.277344 153.453125 L 203.601562 152.828125 L 198.472656 144.800781 L 198.148438 145.425781 Z M 199.78125 143.960938 L 204.914062 151.988281 L 213.128906 151.617188 L 209.160156 145.40625 C 209.042969 145.304688 208.972656 145.203125 208.953125 145.082031 L 208 143.59375 Z M 215.808594 152.9375 C 215.941406 152.695312 216.058594 152.480469 216.136719 152.320312 L 210.957031 144.214844 C 210.828125 144.453125 210.714844 144.667969 210.625 144.832031 Z M 212.28125 143.402344 L 217.414062 151.429688 L 225.628906 151.058594 L 220.496094 143.03125 Z M 228.277344 152.320312 L 228.601562 151.695312 L 223.46875 143.667969 L 223.144531 144.292969 Z M 232.992188 142.46875 L 224.777344 142.839844 L 229.910156 150.867188 L 238.125 150.496094 L 234.210938 144.375 C 234.121094 144.277344 234.050781 144.195312 234.023438 144.078125 Z M 240.777344 151.761719 L 241.101562 151.136719 L 235.988281 143.140625 C 235.875 143.382812 235.761719 143.613281 235.679688 143.792969 Z M 237.277344 142.273438 L 242.402344 150.300781 L 250.621094 149.929688 L 245.492188 141.902344 Z M 253.277344 151.195312 L 253.601562 150.570312 L 248.472656 142.546875 L 248.148438 143.167969 Z M 249.78125 141.710938 L 254.90625 149.734375 L 263.121094 149.363281 L 257.992188 141.335938 Z M 265.773438 150.628906 L 266.097656 150.003906 L 260.964844 141.976562 L 260.644531 142.601562 Z M 270.488281 140.773438 L 262.269531 141.144531 L 267.402344 149.175781 L 275.617188 148.800781 Z M 275.6875 150.351562 L 267.472656 150.722656 L 266.738281 152.140625 L 267.117188 152.734375 L 267.851562 151.3125 L 268.9375 151.265625 L 275.367188 150.976562 Z M 277.933594 152.414062 L 269.71875 152.785156 L 274.84375 160.8125 L 283.058594 160.4375 Z M 283.128906 161.992188 L 274.914062 162.363281 L 274.589844 162.988281 L 282.804688 162.617188 Z M 285.371094 164.054688 L 273.441406 164.59375 C 273.367188 164.609375 273.292969 164.617188 273.210938 164.601562 L 269.734375 164.757812 L 274.863281 172.785156 L 290.5 172.082031 Z M 290.570312 173.636719 L 274.933594 174.339844 L 274.609375 174.964844 L 290.25 174.261719 Z M 292.8125 175.695312 L 269.648438 176.742188 L 274.773438 184.769531 L 297.941406 183.726562 Z M 298.011719 185.277344 L 274.847656 186.320312 L 274.527344 186.945312 L 297.691406 185.898438 Z M 300.25 187.339844 L 274.070312 188.519531 L 279.199219 196.546875 L 305.382812 195.367188 Z M 305.453125 196.914062 L 279.273438 198.097656 L 278.949219 198.722656 L 291.859375 198.144531 L 298.8125 209.027344 L 299.136719 208.402344 L 292.558594 198.109375 L 305.128906 197.539062 Z M 307.695312 198.980469 L 295.316406 199.539062 L 300.445312 207.566406 L 312.820312 207.007812 Z M 311.007812 215.566406 L 309.886719 217.726562 L 134.691406 225.632812 C 134.609375 225.652344 134.515625 225.652344 134.402344 225.644531 L 111.945312 226.660156 L 111.496094 226.679688 L 67.957031 158.554688 L 67.714844 158.175781 L 68.949219 155.789062 L 61.046875 156.148438 L 109.085938 231.3125 L 315.125 222.019531 Z M 315.203125 223.574219 L 109.160156 232.871094 L 105.574219 239.78125 L 311.613281 230.488281 Z M 104.195312 239.070312 L 107.78125 232.15625 L 59.742188 156.992188 L 56.15625 163.90625 Z M 104.195312 239.070312 " fill-opacity="1" fill-rule="nonzero"/></g></g></g><g clip-path="url(#71d52d26ee)"><path fill="#555fff" d="M 3.542969 176.007812 C 6.902344 159.746094 28.324219 148.238281 63.972656 143.488281 L 63.972656 144.257812 C 30.167969 148.78125 7.691406 159.722656 4.292969 176.167969 C 0.269531 195.648438 23.910156 218.660156 63.972656 238.660156 C 68.648438 240.996094 73.542969 243.285156 78.652344 245.53125 C 79.414062 245.207031 80.058594 244.722656 80.582031 244.082031 C 81.109375 243.4375 81.453125 242.710938 81.617188 241.898438 L 84.195312 229.179688 L 86.886719 241.875 C 86.988281 242.355469 87.15625 242.816406 87.394531 243.25 C 87.628906 243.679688 87.921875 244.070312 88.273438 244.417969 C 88.625 244.765625 89.015625 245.054688 89.453125 245.289062 C 89.886719 245.519531 90.347656 245.6875 90.832031 245.785156 L 103.546875 248.359375 L 91.539062 250.90625 C 115.96875 260.589844 144.269531 269.058594 174.820312 275.367188 C 225.113281 285.753906 272.144531 288.34375 307.5625 284.144531 C 343.28125 279.925781 367.179688 268.804688 370.691406 251.808594 C 374.066406 235.488281 358.234375 216.183594 326.125 197.453125 C 320.328125 194.074219 314.140625 190.789062 307.5625 187.601562 L 307.5625 186.753906 C 314.261719 189.988281 320.597656 193.339844 326.507812 196.789062 C 358.929688 215.703125 374.882812 235.296875 371.441406 251.960938 C 368 268.636719 345.589844 280.308594 308.328125 284.835938 C 308.074219 284.867188 307.824219 284.894531 307.5625 284.925781 C 295.875 286.257812 284.144531 286.898438 272.382812 286.855469 C 242.597656 286.855469 209.023438 283.214844 174.667969 276.117188 C 144.222656 269.832031 115.417969 261.300781 90.222656 251.234375 C 89.382812 251.527344 88.671875 252.011719 88.089844 252.683594 C 87.503906 253.351562 87.121094 254.125 86.945312 254.996094 L 84.371094 267.710938 L 81.679688 255.019531 C 81.574219 254.535156 81.40625 254.078125 81.171875 253.644531 C 80.933594 253.210938 80.640625 252.820312 80.289062 252.476562 C 79.941406 252.128906 79.546875 251.839844 79.113281 251.605469 C 78.675781 251.375 78.21875 251.207031 77.734375 251.109375 L 65.015625 248.535156 L 77.507812 245.886719 C 72.84375 243.820312 68.332031 241.703125 63.972656 239.535156 C 58.542969 236.828125 53.378906 234.046875 48.476562 231.191406 C 16.0625 212.277344 0.101562 192.679688 3.542969 176.007812 Z M 3.542969 176.007812 " fill-opacity="1" fill-rule="nonzero"/></g><path fill="#555fff" d="M 75.304688 230.023438 C 72.351562 230.023438 72.347656 225.433594 75.304688 225.433594 C 78.257812 225.433594 78.261719 230.023438 75.304688 230.023438 Z M 75.304688 230.023438 " fill-opacity="1" fill-rule="nonzero"/><path fill="#555fff" d="M 66.882812 215.769531 C 63.929688 215.769531 63.925781 211.179688 66.882812 211.179688 C 69.835938 211.179688 69.839844 215.769531 66.882812 215.769531 Z M 66.882812 215.769531 " fill-opacity="1" fill-rule="nonzero"/><path fill="#555fff" d="M 101.867188 262.359375 C 104.820312 262.359375 104.824219 266.949219 101.867188 266.949219 C 98.914062 266.949219 98.910156 262.359375 101.867188 262.359375 Z M 101.867188 262.359375 " fill-opacity="1" fill-rule="nonzero"/></svg>